<svg width="20" height="18" viewBox="0 0 20 18" fill="none" xmlns="http://www.w3.org/2000/svg">
<path d="M3.09277 13V10.3333C3.09277 9.97971 3.23859 9.64057 3.49814 9.39052C3.7577 9.14048 4.10973 9 4.4768 9H15.549C15.9161 9 16.2682 9.14048 16.5277 9.39052C16.7872 9.64057 16.933 9.97971 16.933 10.3333V13" stroke="#943F7F" stroke-width="1.2" stroke-linecap="round" stroke-linejoin="round"/>
<path d="M9.99585 5V13" stroke="#943F7F" stroke-width="1.2" stroke-linecap="round" stroke-linejoin="round"/>
<path d="M7.94849 2.33333V3.66667C7.94849 4.40304 8.56814 5 9.33251 5H10.7165C11.4809 5 12.1006 4.40304 12.1006 3.66667V2.33333C12.1006 1.59696 11.4809 1 10.7165 1H9.33251C8.56814 1 7.94849 1.59696 7.94849 2.33333Z" stroke="#943F7F" stroke-width="1.2" stroke-linecap="round" stroke-linejoin="round"/>
<path d="M7.94849 14.3333V15.6667C7.94849 16.4031 8.56814 17 9.33251 17H10.7165C11.4809 17 12.1006 16.4031 12.1006 15.6667V14.3333C12.1006 13.5969 11.4809 13 10.7165 13H9.33251C8.56814 13 7.94849 13.5969 7.94849 14.3333Z" stroke="#943F7F" stroke-width="1.2" stroke-linecap="round" stroke-linejoin="round"/>
<path d="M1 14.3333V15.6667C1 16.4031 1.61965 17 2.38403 17H3.76805C4.53242 17 5.15208 16.4031 5.15208 15.6667V14.3333C5.15208 13.5969 4.53242 13 3.76805 13H2.38403C1.61965 13 1 13.5969 1 14.3333Z" stroke="#943F7F" stroke-width="1.2" stroke-linecap="round" stroke-linejoin="round"/>
<path d="M14.8474 14.3333V15.6667C14.8474 16.4031 15.467 17 16.2314 17H17.6155C18.3799 17 18.9995 16.4031 18.9995 15.6667V14.3333C18.9995 13.5969 18.3799 13 17.6155 13H16.2314C15.467 13 14.8474 13.5969 14.8474 14.3333Z" stroke="#943F7F" stroke-width="1.2" stroke-linecap="round" stroke-linejoin="round"/>
</svg>
