<svg width="20" height="18" viewBox="0 0 20 18" fill="none" xmlns="http://www.w3.org/2000/svg">
<path d="M7.99545 6.23547L7.38715 5.44444H2.29264C1.57873 5.44444 1 6.34087 1 6.98823V11.2414C1 11.565 1.28937 11.8274 1.64632 11.8274H2.67283M2.67283 11.8274V8.47226M2.67283 11.8274V16.4139C2.67283 16.7376 2.96219 17 3.31914 17H4.80188M4.80188 17V12.107M4.80188 17H6.28461C6.64156 17 6.93093 16.7376 6.93093 16.4139V13.9244M13.9264 17H12.5957C12.2388 17 11.9494 16.7376 11.9494 16.4139V13.9244M13.9264 17V13.505M13.9264 17H14.9529C15.3098 17 15.5992 16.7376 15.5992 16.4139V13.3652H17.0463C17.5118 13.3652 17.8247 12.9324 17.6389 12.5453L17.2944 11.8274M17.2944 11.8274L15.7513 8.61205M17.2944 11.8274H18.1308C18.5911 11.8274 18.9039 11.4035 18.7282 11.0177L16.6896 6.54086C16.4899 6.10222 16.0182 5.44444 15.4948 5.44444H11.9494L11.3411 6.37527M6.93093 13.9244V11.1822C6.93093 10.5348 7.50966 10.01 8.22356 10.01H10.6568C11.3707 10.01 11.9494 10.5348 11.9494 11.1822V13.9244M6.93093 13.9244H7.50121C7.85816 13.9244 8.14753 14.1868 8.14753 14.5105V16.4139C8.14753 16.7376 8.43689 17 8.79385 17H10.2386C10.5955 17 10.8849 16.7376 10.8849 16.4139V14.5105C10.8849 14.1868 11.1742 13.9244 11.5312 13.9244H11.9494M6.62678 2.67759C6.62678 3.6041 5.80974 4.35518 4.80188 4.35518C3.79401 4.35518 2.97698 3.6041 2.97698 2.67759C2.97698 1.75108 3.79401 1 4.80188 1C5.80974 1 6.62678 1.75108 6.62678 2.67759ZM11.189 7.63346C11.189 8.40555 10.5082 9.03145 9.66829 9.03145C8.8284 9.03145 8.14754 8.40555 8.14754 7.63346C8.14754 6.86137 8.8284 6.23547 9.66829 6.23547C10.5082 6.23547 11.189 6.86137 11.189 7.63346ZM15.7513 2.67759C15.7513 3.6041 14.9342 4.35518 13.9264 4.35518C12.9185 4.35518 12.1015 3.6041 12.1015 2.67759C12.1015 1.75108 12.9185 1 13.9264 1C14.9342 1 15.7513 1.75108 15.7513 2.67759Z" stroke="#943F7F"/>
</svg>
