<svg width="11" height="18" viewBox="0 0 11 18" fill="none" xmlns="http://www.w3.org/2000/svg">
<path d="M5.39698 5.92355C6.78557 5.92355 7.91126 4.82137 7.91126 3.46177C7.91126 2.10218 6.78557 1 5.39698 1C4.00838 1 2.88269 2.10218 2.88269 3.46177C2.88269 4.82137 4.00838 5.92355 5.39698 5.92355Z" stroke="#943F7F" stroke-width="1.2" stroke-linecap="round" stroke-linejoin="round"/>
<path d="M9.8 10.2297C9.8 9.08715 9.33643 7.99137 8.51126 7.18344C7.68611 6.37552 6.56695 5.92163 5.39999 5.92163C4.23305 5.92163 3.11389 6.37552 2.28872 7.18344C1.46357 7.99137 1 9.08715 1 10.2297V12.0761H2.88571L3.51429 16.9996H7.28571L7.91428 12.0761H9.8V10.2297Z" stroke="#943F7F" stroke-width="1.2" stroke-linecap="round" stroke-linejoin="round"/>
</svg>
