<svg width="18" height="18" viewBox="0 0 18 18" fill="none" xmlns="http://www.w3.org/2000/svg">
<path d="M9 17C13.4183 17 17 13.4183 17 9C17 4.58172 13.4183 1 9 1C4.58172 1 1 4.58172 1 9C1 13.4183 4.58172 17 9 17Z" stroke="#943F7F" stroke-width="1.2" stroke-linecap="round" stroke-linejoin="round"/>
<path d="M1.61804 12.0759H3.77189C4.34313 12.0759 4.89097 11.8489 5.29489 11.445C5.69882 11.0411 5.92573 10.4932 5.92573 9.92201V8.07586C5.92573 7.50462 6.15265 6.95678 6.55658 6.55286C6.9605 6.14893 7.50834 5.92201 8.07958 5.92201C8.65082 5.92201 9.19866 5.69508 9.60258 5.29116C10.0065 4.88723 10.2334 4.3394 10.2334 3.76817V1.08508" stroke="#943F7F" stroke-width="1.2" stroke-linecap="round" stroke-linejoin="round"/>
<path d="M16.9984 8.87774C16.3821 8.558 15.6988 8.38926 15.0045 8.38544H12.383C11.8117 8.38544 11.2639 8.61235 10.86 9.01628C10.456 9.42021 10.2291 9.96805 10.2291 10.5393C10.2291 11.1105 10.456 11.6584 10.86 12.0623C11.2639 12.4662 11.8117 12.6931 12.383 12.6931C12.791 12.6931 13.1824 12.8552 13.4708 13.1437C13.7593 13.4322 13.9214 13.8236 13.9214 14.2316V15.3024" stroke="#943F7F" stroke-width="1.2" stroke-linecap="round" stroke-linejoin="round"/>
</svg>
