<svg width="14" height="14" viewBox="0 0 14 14" fill="none" xmlns="http://www.w3.org/2000/svg">
<path d="M1.9489 2.38477C1.69724 2.38477 1.45588 2.48202 1.27793 2.65513C1.09997 2.82825 1 3.06304 1 3.30787V12.0773C1 12.3222 1.09997 12.557 1.27793 12.7301C1.45588 12.9032 1.69724 13.0004 1.9489 13.0004H12.3868C12.6385 13.0004 12.8799 12.9032 13.0578 12.7301C13.2357 12.557 13.3358 12.3222 13.3358 12.0773V3.30787C13.3358 3.06304 13.2357 2.82825 13.0578 2.65513C12.8799 2.48202 12.6385 2.38477 12.3868 2.38477H10.489" stroke="#5E5F60" stroke-linecap="round" stroke-linejoin="round"/>
<path d="M1 5.61523H13.3358" stroke="#5E5F60" stroke-linecap="round" stroke-linejoin="round"/>
<path d="M3.84668 1V3.76931" stroke="#5E5F60" stroke-linecap="round" stroke-linejoin="round"/>
<path d="M10.4894 1V3.76931" stroke="#5E5F60" stroke-linecap="round" stroke-linejoin="round"/>
<path d="M3.84668 2.38477H8.5912" stroke="#5E5F60" stroke-linecap="round" stroke-linejoin="round"/>
</svg>
