<svg width="24" height="20" viewBox="0 0 24 20" fill="none" xmlns="http://www.w3.org/2000/svg">
<path d="M23.1431 6.57157C23.1431 6.1169 22.9625 5.68088 22.641 5.35938C22.3196 5.0379 21.8835 4.85728 21.4289 4.85728H18.0003L15.4289 1.42871H8.57171L6.00028 4.85728H2.57171C2.11704 4.85728 1.68102 5.0379 1.35952 5.35938C1.03803 5.68088 0.857422 6.1169 0.857422 6.57157V16.8573C0.857422 17.3119 1.03803 17.748 1.35952 18.0695C1.68102 18.3909 2.11704 18.5716 2.57171 18.5716H21.4289C21.8835 18.5716 22.3196 18.3909 22.641 18.0695C22.9625 17.748 23.1431 17.3119 23.1431 16.8573V6.57157Z" stroke="#58B4E7" stroke-linecap="round" stroke-linejoin="round"/>
<path d="M12.0007 14.7143C14.1309 14.7143 15.8578 12.9874 15.8578 10.8571C15.8578 8.7269 14.1309 7 12.0007 7C9.87046 7 8.14355 8.7269 8.14355 10.8571C8.14355 12.9874 9.87046 14.7143 12.0007 14.7143Z" stroke="#58B4E7" stroke-linecap="round" stroke-linejoin="round"/>
</svg>
