<svg width="24" height="24" viewBox="0 0 24 24" fill="none" xmlns="http://www.w3.org/2000/svg">
<path d="M14.5 21C16.981 21 19 18.981 19 16.5V7.157C19 5.955 18.532 4.825 17.682 3.975L15.025 1.318C14.175 0.468 13.046 0 11.843 0H6.5C4.019 0 2 2.019 2 4.5V16.5C2 18.981 4.019 21 6.5 21H14.5ZM16.975 4.682C17.352 5.059 17.62 5.511 17.791 6H14C13.449 6 13 5.551 13 5V1.209C13.489 1.38 13.941 1.648 14.318 2.025L16.975 4.682ZM3 16.5V4.5C3 2.57 4.57 1 6.5 1H11.843C11.896 1 11.947 1.013 12 1.015V5C12 6.103 12.897 7 14 7H17.985C17.987 7.053 18 7.104 18 7.157V16.5C18 18.43 16.43 20 14.5 20H6.5C4.57 20 3 18.43 3 16.5ZM22 8.5V19.5C22 21.981 19.981 24 17.5 24H5.5C5.224 24 5 23.776 5 23.5C5 23.224 5.224 23 5.5 23H17.5C19.43 23 21 21.43 21 19.5V8.5C21 8.224 21.224 8 21.5 8C21.776 8 22 8.224 22 8.5Z" fill="#A34CE9"/>
</svg>
