<svg width="24" height="24" viewBox="0 0 24 24" fill="none" xmlns="http://www.w3.org/2000/svg">
<path d="M12.0003 23.1431C18.1544 23.1431 23.1431 18.1544 23.1431 12.0003C23.1431 5.84625 18.1544 0.857422 12.0003 0.857422C5.84625 0.857422 0.857422 5.84625 0.857422 12.0003C0.857422 18.1544 5.84625 23.1431 12.0003 23.1431Z" stroke="#131313" stroke-linecap="round" stroke-linejoin="round"/>
<path d="M16.2185 7.75297C13.8903 7.75297 12.0028 9.6404 12.0028 11.9687C12.0028 14.2969 13.8903 16.1844 16.2185 16.1844C16.6476 16.1844 16.9753 16.7002 16.6607 16.992C15.4384 18.1259 13.8016 18.8192 12.0028 18.8192C8.21941 18.8192 5.15234 15.7521 5.15234 11.9687C5.15234 8.18524 8.21941 5.11816 12.0028 5.11816C13.8016 5.11816 15.4384 5.81142 16.6607 6.94534C16.9753 7.23714 16.6476 7.75297 16.2185 7.75297Z" fill="#131313"/>
</svg>
