<svg width="24" height="24" viewBox="0 0 24 24" fill="none" xmlns="http://www.w3.org/2000/svg">
<path d="M1.71436 6H22.2858" stroke="#E75858" stroke-linecap="round" stroke-linejoin="round"/>
<path d="M4.28564 6H19.7142V21.4286C19.7142 21.8832 19.5335 22.3193 19.2121 22.6407C18.8907 22.9622 18.4546 23.1429 17.9999 23.1429H5.99993C5.54527 23.1429 5.10924 22.9622 4.78774 22.6407C4.46626 22.3193 4.28564 21.8832 4.28564 21.4286V6Z" stroke="#E75858" stroke-linecap="round" stroke-linejoin="round"/>
<path d="M7.71436 5.99979V5.14265C7.71436 4.00601 8.16588 2.91591 8.96961 2.11218C9.77333 1.30846 10.8634 0.856934 12.0001 0.856934C13.1367 0.856934 14.2268 1.30846 15.0305 2.11218C15.8343 2.91591 16.2858 4.00601 16.2858 5.14265V5.99979" stroke="#E75858" stroke-linecap="round" stroke-linejoin="round"/>
<path d="M9.42871 11.145V18.0048" stroke="#E75858" stroke-linecap="round" stroke-linejoin="round"/>
<path d="M14.5713 11.145V18.0048" stroke="#E75858" stroke-linecap="round" stroke-linejoin="round"/>
</svg>
