<svg width="24" height="24" viewBox="0 0 24 24" fill="none" xmlns="http://www.w3.org/2000/svg">
<path d="M12.0003 23.1426C18.1544 23.1426 23.1431 18.1539 23.1431 11.9998C23.1431 5.84576 18.1544 0.856934 12.0003 0.856934C5.84625 0.856934 0.857422 5.84576 0.857422 11.9998C0.857422 18.1539 5.84625 23.1426 12.0003 23.1426Z" stroke="#E7AE58" stroke-linecap="round" stroke-linejoin="round"/>
<path d="M6.34277 13.7139C7.19992 16.7996 10.6285 18.6853 13.7142 17.8282C15.5999 17.1424 17.1428 15.5996 17.6571 13.7139" stroke="#E7AE58" stroke-linecap="round" stroke-linejoin="round"/>
<path d="M8.14342 9.42843C7.90672 9.42843 7.71484 9.23655 7.71484 8.99986C7.71484 8.76317 7.90672 8.57129 8.14342 8.57129" stroke="#E7AE58" stroke-linecap="round" stroke-linejoin="round"/>
<path d="M8.14355 9.42843C8.38025 9.42843 8.57213 9.23655 8.57213 8.99986C8.57213 8.76317 8.38025 8.57129 8.14355 8.57129" stroke="#E7AE58" stroke-linecap="round" stroke-linejoin="round"/>
<path d="M15.8573 9.42843C15.6206 9.42843 15.4287 9.23655 15.4287 8.99986C15.4287 8.76317 15.6206 8.57129 15.8573 8.57129" stroke="#E7AE58" stroke-linecap="round" stroke-linejoin="round"/>
<path d="M15.8574 9.42843C16.0941 9.42843 16.286 9.23655 16.286 8.99986C16.286 8.76317 16.0941 8.57129 15.8574 8.57129" stroke="#E7AE58" stroke-linecap="round" stroke-linejoin="round"/>
</svg>
