<svg width="22" height="22" viewBox="0 0 22 22" fill="none" xmlns="http://www.w3.org/2000/svg">
<path d="M2.53847 3.30713C2.13044 3.30713 1.73913 3.46922 1.45061 3.75773C1.16209 4.04626 1 4.43757 1 4.8456V19.4611C1 19.8691 1.16209 20.2605 1.45061 20.5489C1.73913 20.8374 2.13044 20.9995 2.53847 20.9995H19.4616C19.8696 20.9995 20.261 20.8374 20.5495 20.5489C20.838 20.2605 21.0001 19.8691 21.0001 19.4611V4.8456C21.0001 4.43757 20.838 4.04626 20.5495 3.75773C20.261 3.46922 19.8696 3.30713 19.4616 3.30713H16.3847" stroke="#58B4E7" stroke-width="1.2" stroke-linecap="round" stroke-linejoin="round"/>
<path d="M5.61426 1V5.61541" stroke="#58B4E7" stroke-width="1.2" stroke-linecap="round" stroke-linejoin="round"/>
<path d="M16.3857 1V5.61541" stroke="#58B4E7" stroke-width="1.2" stroke-linecap="round" stroke-linejoin="round"/>
<path d="M5.61426 3.30713H13.3066" stroke="#58B4E7" stroke-width="1.2" stroke-linecap="round" stroke-linejoin="round"/>
<path d="M15.6166 10.7903L9.26025 17.1466L6.38574 17.538L6.79061 14.6634L13.1334 8.30713L15.6166 10.7903Z" stroke="#58B4E7" stroke-width="1.2" stroke-linecap="round" stroke-linejoin="round"/>
</svg>
