<svg width="14" height="20" viewBox="0 0 14 20" fill="none" xmlns="http://www.w3.org/2000/svg">
<path d="M6.70801 0.440918C3.16903 0.440918 0.288086 3.31904 0.288086 6.85802C0.288086 9.99336 2.5551 12.6105 5.5224 13.1672V15.1066H3.84021C3.246 15.1066 2.76537 15.5891 2.76537 16.1824C2.76537 16.7756 3.246 17.2581 3.84021 17.2581H5.5224V18.4663C5.5224 19.0605 6.00491 19.542 6.59912 19.542C7.19333 19.542 7.67677 19.0586 7.67677 18.4663V17.2581H9.44345C10.0377 17.2581 10.5192 16.7737 10.5192 16.1824C10.5192 15.5863 10.0377 15.1066 9.44345 15.1066H7.67677V13.2019C10.7661 12.7325 13.1242 10.0666 13.1242 6.85802C13.1242 3.31904 10.247 0.440918 6.70801 0.440918ZM6.70801 11.1226C4.35463 11.1226 2.44151 9.20858 2.44151 6.85615C2.44151 4.50371 4.35463 2.58965 6.70801 2.58965C9.05951 2.58965 10.9736 4.50371 10.9736 6.85615C10.9736 9.20858 9.06045 11.1226 6.70801 11.1226Z" fill="#5E5F60"/>
</svg>
