<svg width="24" height="24" viewBox="0 0 24 24" fill="none" xmlns="http://www.w3.org/2000/svg">
<path d="M23.1206 0H17.624C17.3908 0 17.1671 0.0926553 17.0022 0.257583C16.8372 0.42251 16.7446 0.6462 16.7446 0.879443C16.7446 1.11269 16.8372 1.33638 17.0022 1.5013C17.1671 1.66623 17.3908 1.75889 17.624 1.75889H22.2411V6.37596C22.2411 6.6092 22.3338 6.83289 22.4987 6.99782C22.6636 7.16275 22.8873 7.2554 23.1206 7.2554C23.3538 7.2554 23.5775 7.16275 23.7424 6.99782C23.9073 6.83289 24 6.6092 24 6.37596V0.879443C24 0.6462 23.9073 0.42251 23.7424 0.257583C23.5775 0.0926553 23.3538 0 23.1206 0ZM6.37596 0H0.879443C0.6462 0 0.42251 0.0926553 0.257583 0.257583C0.0926553 0.42251 0 0.6462 0 0.879443V6.37596C0 6.6092 0.0926553 6.83289 0.257583 6.99782C0.42251 7.16275 0.6462 7.2554 0.879443 7.2554C1.11269 7.2554 1.33638 7.16275 1.5013 6.99782C1.66623 6.83289 1.75889 6.6092 1.75889 6.37596V1.75889H6.37596C6.6092 1.75889 6.83289 1.66623 6.99782 1.5013C7.16275 1.33638 7.2554 1.11269 7.2554 0.879443C7.2554 0.6462 7.16275 0.42251 6.99782 0.257583C6.83289 0.0926553 6.6092 0 6.37596 0ZM6.37596 22.2411H1.75889V17.624C1.75889 17.3908 1.66623 17.1671 1.5013 17.0022C1.33638 16.8372 1.11269 16.7446 0.879443 16.7446C0.6462 16.7446 0.42251 16.8372 0.257583 17.0022C0.0926553 17.1671 0 17.3908 0 17.624V23.1206C0 23.3538 0.0926553 23.5775 0.257583 23.7424C0.42251 23.9073 0.6462 24 0.879443 24H6.37596C6.6092 24 6.83289 23.9073 6.99782 23.7424C7.16275 23.5775 7.2554 23.3538 7.2554 23.1206C7.2554 22.8873 7.16275 22.6636 6.99782 22.4987C6.83289 22.3338 6.6092 22.2411 6.37596 22.2411ZM23.1206 16.7446C22.8873 16.7446 22.6636 16.8372 22.4987 17.0022C22.3338 17.1671 22.2411 17.3908 22.2411 17.624V22.2411H17.624C17.3908 22.2411 17.1671 22.3338 17.0022 22.4987C16.8372 22.6636 16.7446 22.8873 16.7446 23.1206C16.7446 23.3538 16.8372 23.5775 17.0022 23.7424C17.1671 23.9073 17.3908 24 17.624 24H23.1206C23.3538 24 23.5775 23.9073 23.7424 23.7424C23.9073 23.5775 24 23.3538 24 23.1206V17.624C24 17.3908 23.9073 17.1671 23.7424 17.0022C23.5775 16.8372 23.3538 16.7446 23.1206 16.7446Z" fill="#E75858"/>
<path fill-rule="evenodd" clip-rule="evenodd" d="M11.8586 8C12.6218 8 13.3678 8.2266 14.0023 8.65059C14.6369 9.07458 15.1317 9.67707 15.4237 10.3821C15.7158 11.0872 15.7918 11.8632 15.6429 12.6117C15.4941 13.3602 15.1269 14.0476 14.5873 14.5873C14.0476 15.1269 13.3597 15.4946 12.6112 15.6435C11.8627 15.7923 11.0872 15.7158 10.3821 15.4237C9.67707 15.1317 9.07408 14.6369 8.65009 14.0023C8.2261 13.3678 8 12.6218 8 11.8586C8 10.8352 8.40632 9.85409 9.12995 9.13046C9.85358 8.40682 10.8352 8 11.8586 8ZM11.8586 9.84671C11.4607 9.84671 11.0717 9.96456 10.7408 10.1856C10.4099 10.4067 10.1521 10.7211 9.99976 11.0888C9.84748 11.4565 9.80747 11.8613 9.8851 12.2516C9.96274 12.6419 10.1543 13.0001 10.4357 13.2815C10.7171 13.5629 11.0758 13.7545 11.4661 13.8321C11.8564 13.9097 12.2607 13.8702 12.6284 13.7179C12.9961 13.5657 13.3105 13.3073 13.5316 12.9764C13.7526 12.6455 13.8705 12.2565 13.8705 11.8586C13.8705 11.325 13.6589 10.8135 13.2815 10.4362C12.9042 10.0589 12.3922 9.84671 11.8586 9.84671Z" fill="#E75858"/>
</svg>
