<svg width="24" height="24" viewBox="0 0 24 24" fill="none" xmlns="http://www.w3.org/2000/svg">
<g clip-path="url(#clip0_74_8939)">
<path d="M13 8.00831V4.5C13 3.67284 13.6728 3 14.5 3C14.8721 3 15.2314 3.14259 15.5098 3.40139L16.1553 3.99858C18.2793 5.96386 21.8349 9.25294 23.6543 11.0776C23.877 11.3023 24 11.6294 24 12C24 12.3706 23.877 12.6977 23.6543 12.9229C21.8349 14.7471 18.2793 18.0361 16.1553 20.0015L15.5098 20.5987C15.2314 20.8575 14.8721 21 14.5 21C13.6728 21 13 20.3272 13 19.5V16.0035C5.7998 16.1045 0.999985 18.3755 0.999985 20.5C1.00003 20.5657 0.987123 20.6307 0.962009 20.6914C0.936897 20.7521 0.900068 20.8073 0.85363 20.8537C0.80719 20.9001 0.752052 20.937 0.691368 20.9621C0.630684 20.9872 0.565643 21.0001 0.499968 21C0.434294 21.0001 0.369253 20.9872 0.308571 20.9621C0.247887 20.937 0.192747 20.9001 0.146309 20.8537C0.0998688 20.8073 0.0630398 20.7521 0.0379276 20.6914C0.0128136 20.6307 -8.96454e-05 20.5657 -4.57764e-05 20.5C1.90735e-06 13.7622 5.78611 8.25244 13 8.00831ZM13.5 15C13.5657 15 13.6307 15.0129 13.6914 15.038C13.7521 15.0631 13.8072 15.0999 13.8537 15.1464C13.9001 15.1928 13.9369 15.2479 13.962 15.3086C13.9872 15.3693 14.0001 15.4343 14 15.5V19.5C14 19.7759 14.2246 20 14.5 20C14.6524 20 14.7637 19.9268 14.8301 19.8652L15.4756 19.2676C17.5947 17.3071 21.1406 14.0269 22.9453 12.2173C22.9726 12.1899 23 12.1118 23 12C23 11.8882 22.9727 11.8101 22.9453 11.7832C21.1406 9.97312 17.5947 6.69286 15.4756 4.73241L14.8301 4.13475C14.7637 4.0732 14.6523 3.99998 14.5 3.99998C14.2246 3.99998 14 4.22409 14 4.5V8.49998C14 8.56566 13.9871 8.6307 13.962 8.69138C13.9369 8.75207 13.9001 8.80721 13.8536 8.85365C13.8072 8.90008 13.752 8.93691 13.6914 8.96203C13.6307 8.98714 13.5656 9.00004 13.5 9C7.48823 9 2.45405 12.9248 1.26558 18.1352C3.39942 16.2661 8.01952 15 13.5 15Z" fill="#58B4E7"/>
</g>
<defs>
<clipPath id="clip0_74_8939">
<rect width="24" height="24" fill="white" transform="matrix(-1 0 0 1 24 0)"/>
</clipPath>
</defs>
</svg>
