<svg width="20" height="16" viewBox="0 0 20 16" fill="none" xmlns="http://www.w3.org/2000/svg">
<path d="M17.8822 0.881092L17.1463 0.145149C16.9383 -0.0628416 16.5543 -0.0308325 16.3143 0.257113L13.7541 2.80108C12.602 2.30514 11.3382 2.06514 10.0101 2.06514C6.05798 2.08107 2.6342 4.38504 0.986083 7.69725C0.890056 7.90524 0.890056 8.16117 0.986083 8.33716C1.75402 9.90518 2.90609 11.2012 4.34609 12.1772L2.2501 14.3051C2.0101 14.5451 1.97809 14.9291 2.13813 15.1371L2.87408 15.8731C3.08207 16.081 3.46606 16.049 3.70606 15.7611L17.754 1.71321C18.058 1.47334 18.09 1.08938 17.882 0.881366L17.8822 0.881092ZM10.8581 5.71298C10.5861 5.64896 10.2981 5.56901 10.0261 5.56901C8.66606 5.56901 7.57818 6.65703 7.57818 8.01694C7.57818 8.28895 7.64219 8.57689 7.72215 8.84892L6.65003 9.90495C6.33008 9.34499 6.15409 8.72089 6.15409 8.01697C6.15409 5.88899 7.86611 4.17697 9.99409 4.17697C10.6982 4.17697 11.3221 4.35295 11.8821 4.67291L10.8581 5.71298Z" fill="#5E5F60"/>
<path d="M19.0347 7.69743C18.4747 6.57738 17.7386 5.56945 16.8267 4.75342L13.8507 7.69743V8.01738C13.8507 10.1454 12.1387 11.8574 10.0107 11.8574H9.69072L7.80273 13.7454C8.50679 13.8893 9.24274 13.9854 9.96274 13.9854C13.9149 13.9854 17.3386 11.6814 18.9868 8.35325C19.1307 8.12918 19.1307 7.90527 19.0347 7.69726L19.0347 7.69743Z" fill="#5E5F60"/>
</svg>
