<svg width="24" height="24" viewBox="0 0 24 24" fill="none" xmlns="http://www.w3.org/2000/svg">
<g clip-path="url(#clip0_74_8942)">
<path d="M12 23.1427C18.1542 23.1427 23.1429 18.1539 23.1429 11.9998C23.1429 5.84576 18.1542 0.856934 12 0.856934C5.84601 0.856934 0.857178 5.84576 0.857178 11.9998C0.857178 18.1539 5.84601 23.1427 12 23.1427Z" stroke="#E7AE58" stroke-linecap="round" stroke-linejoin="round"/>
<path d="M9.42871 17.1426H14.5716" stroke="#E7AE58" stroke-linecap="round" stroke-linejoin="round"/>
<path d="M11.9999 17.1426V11.1426H10.2856" stroke="#E7AE58" stroke-linecap="round" stroke-linejoin="round"/>
<path d="M11.9999 7.28537C11.7632 7.28537 11.5713 7.09349 11.5713 6.85679C11.5713 6.6201 11.7632 6.42822 11.9999 6.42822" stroke="#E7AE58" stroke-linecap="round" stroke-linejoin="round"/>
<path d="M12 7.28537C12.2367 7.28537 12.4286 7.09349 12.4286 6.85679C12.4286 6.6201 12.2367 6.42822 12 6.42822" stroke="#E7AE58" stroke-linecap="round" stroke-linejoin="round"/>
</g>
<defs>
<clipPath id="clip0_74_8942">
<rect width="24" height="24" fill="white"/>
</clipPath>
</defs>
</svg>
