<svg width="20" height="24" viewBox="0 0 20 24" fill="none" xmlns="http://www.w3.org/2000/svg">
<path d="M16.8573 9.42822H3.143C2.19623 9.42822 1.42871 10.1957 1.42871 11.1425V21.4282C1.42871 22.375 2.19623 23.1425 3.143 23.1425H16.8573C17.8041 23.1425 18.5716 22.375 18.5716 21.4282V11.1425C18.5716 10.1957 17.8041 9.42822 16.8573 9.42822Z" stroke="#E7AE58" stroke-linecap="round" stroke-linejoin="round"/>
<path d="M16 9.42836V6.85693C16 5.26563 15.3679 3.7395 14.2426 2.6143C13.1174 1.48907 11.5913 0.856934 10 0.856934C8.4087 0.856934 6.88257 1.48907 5.75737 2.6143C4.63214 3.7395 4 5.26563 4 6.85693V9.42836" stroke="#E7AE58" stroke-linecap="round" stroke-linejoin="round"/>
<path d="M9.99972 17.1425C10.4731 17.1425 10.8569 16.7587 10.8569 16.2854C10.8569 15.812 10.4731 15.4282 9.99972 15.4282C9.52634 15.4282 9.14258 15.812 9.14258 16.2854C9.14258 16.7587 9.52634 17.1425 9.99972 17.1425Z" stroke="#E7AE58" stroke-linecap="round" stroke-linejoin="round"/>
</svg>
