<svg width="17" height="14" viewBox="0 0 17 14" fill="none" xmlns="http://www.w3.org/2000/svg">
<path d="M15.3359 0.333008H2.0026C1.08594 0.333008 0.344271 1.08301 0.344271 1.99967L0.335938 11.9997C0.335938 12.9163 1.08594 13.6663 2.0026 13.6663H15.3359C16.2526 13.6663 17.0026 12.9163 17.0026 11.9997V1.99967C17.0026 1.08301 16.2526 0.333008 15.3359 0.333008ZM14.5026 11.9997H2.83594C2.3776 11.9997 2.0026 11.6247 2.0026 11.1663V3.66634L7.78594 7.28301C8.3276 7.62467 9.01094 7.62467 9.5526 7.28301L15.3359 3.66634V11.1663C15.3359 11.6247 14.9609 11.9997 14.5026 11.9997ZM8.66927 6.16634L2.0026 1.99967H15.3359L8.66927 6.16634Z" fill="#131313"/>
</svg>
