<svg width="20" height="20" viewBox="0 0 20 20" fill="none" xmlns="http://www.w3.org/2000/svg">
<path d="M19.5876 0.412117C19.5805 0.40611 19.571 0.401305 19.5662 0.395298C19.2453 0.0757413 18.8008 -0.0503998 18.3896 0.0180767L13.6332 0.0805466C12.8809 0.0913586 12.2795 0.714855 12.289 1.4753C12.2986 2.23335 12.8678 2.79918 13.6677 2.83282L15.2603 2.8124L12.9296 5.16823C11.5439 4.13508 9.87521 3.57645 8.1198 3.57645C5.94961 3.57645 3.90896 4.43061 2.37461 5.98154C-0.791538 9.18311 -0.791538 14.3933 2.37461 17.5949C3.90896 19.1458 5.94961 20 8.1198 20C10.2888 20 12.3306 19.1458 13.865 17.5949C16.6698 14.7573 16.9943 10.3448 14.8289 7.14804L17.276 4.68169V6.4825C17.276 7.24295 17.8869 7.85803 18.638 7.85803C19.3927 7.85803 20 7.24175 20 6.4825V1.38881C20 1.0236 19.8467 0.670406 19.5876 0.412117ZM11.9396 15.6487C9.90017 17.7102 6.343 17.7102 4.30117 15.6487C2.19515 13.5212 2.19515 10.0565 4.30117 7.92771C5.32208 6.89696 6.67816 6.32873 8.12099 6.32873C9.56501 6.32873 10.9187 6.89696 11.942 7.92771C14.0468 10.0553 14.0468 13.5212 11.9396 15.6487Z" fill="#5E5F60"/>
</svg>
