<svg width="19" height="8" viewBox="0 0 19 8" fill="none" xmlns="http://www.w3.org/2000/svg">
<path d="M4.06632 7.07505L5.55162 5.89416C5.90851 5.61074 6.1132 5.18562 6.1132 4.73426L6.1132 2.80284C8.35428 2.07331 10.7843 2.06806 13.0306 2.80284L13.0306 4.74476C13.0306 5.19612 13.2353 5.62124 13.5922 5.90466L15.067 7.07505C15.6601 7.54216 16.5051 7.49493 17.0404 6.95959L17.9484 6.05161C18.5415 5.45854 18.5415 4.47184 17.9116 3.91551C13.1513 -0.288479 5.98724 -0.28323 1.23217 3.91551C0.60236 4.47184 0.602361 5.45854 1.19543 6.05161L2.10341 6.95959C2.62825 7.49493 3.47325 7.54216 4.06632 7.07505Z" fill="black"/>
</svg>
