<svg width="20" height="20" viewBox="0 0 20 20" fill="none" xmlns="http://www.w3.org/2000/svg">
<path d="M8.75 3.95C8.75 3.83954 8.83954 3.75 8.95 3.75H11.05C11.1605 3.75 11.25 3.83954 11.25 3.95V16.05C11.25 16.1605 11.1605 16.25 11.05 16.25H8.95C8.83954 16.25 8.75 16.1605 8.75 16.05V3.95ZM13.75 11.45C13.75 11.3395 13.8395 11.25 13.95 11.25H16.05C16.1605 11.25 16.25 11.3395 16.25 11.45V16.05C16.25 16.1605 16.1605 16.25 16.05 16.25H13.95C13.8395 16.25 13.75 16.1605 13.75 16.05V11.45ZM3.75 7.7C3.75 7.58954 3.83954 7.5 3.95 7.5H6.05C6.16046 7.5 6.25 7.58954 6.25 7.7V16.05C6.25 16.1605 6.16046 16.25 6.05 16.25H3.95C3.83954 16.25 3.75 16.1605 3.75 16.05V7.7Z" stroke="#54D052" stroke-width="1.2"/>
<rect x="0.6" y="0.6" width="18.8" height="18.8" rx="1.4" stroke="#54D052" stroke-width="1.2"/>
</svg>
