<svg width="24" height="24" viewBox="0 0 24 24" fill="none" xmlns="http://www.w3.org/2000/svg">
<g clip-path="url(#clip0_74_8934)">
<path d="M11 8.00831V4.5C11 3.67284 10.3272 3 9.50002 3C9.12792 3 8.76858 3.14259 8.49023 3.40139L7.84472 3.99858C5.72072 5.96386 2.16506 9.25294 0.345703 11.0776C0.123047 11.3023 0 11.6294 0 12C0 12.3706 0.123047 12.6977 0.345703 12.9229C2.16506 14.7471 5.72072 18.0361 7.84472 20.0015L8.49023 20.5987C8.76858 20.8575 9.12792 21 9.50002 21C10.3272 21 11 20.3272 11 19.5V16.0035C18.2002 16.1045 23 18.3755 23 20.5C23 20.5657 23.0129 20.6307 23.038 20.6914C23.0631 20.7521 23.0999 20.8073 23.1464 20.8537C23.1928 20.9001 23.2479 20.937 23.3086 20.9621C23.3693 20.9872 23.4344 21.0001 23.5 21C23.5657 21.0001 23.6307 20.9872 23.6914 20.9621C23.7521 20.937 23.8073 20.9001 23.8537 20.8537C23.9001 20.8073 23.937 20.7521 23.9621 20.6914C23.9872 20.6307 24.0001 20.5657 24 20.5C24 13.7622 18.2139 8.25244 11 8.00831ZM10.5 15C10.4343 15 10.3693 15.0129 10.3086 15.038C10.2479 15.0631 10.1928 15.0999 10.1463 15.1464C10.0999 15.1928 10.0631 15.2479 10.038 15.3086C10.0128 15.3693 9.99994 15.4343 9.99998 15.5V19.5C9.99998 19.7759 9.77536 20 9.49997 20C9.34762 20 9.2363 19.9268 9.16987 19.8652L8.52436 19.2676C6.40528 17.3071 2.85938 14.0269 1.05469 12.2173C1.02736 12.1899 0.999984 12.1118 0.999984 12C0.999984 11.8882 1.02731 11.8101 1.05469 11.7832C2.85938 9.97312 6.40528 6.69286 8.52441 4.73241L9.16992 4.13475C9.23634 4.0732 9.34767 3.99998 9.50002 3.99998C9.77541 3.99998 10 4.22409 10 4.5V8.49998C9.99999 8.56566 10.0129 8.6307 10.038 8.69138C10.0631 8.75207 10.0999 8.80721 10.1464 8.85365C10.1928 8.90008 10.248 8.93691 10.3086 8.96203C10.3693 8.98714 10.4344 9.00004 10.5 9C16.5118 9 21.546 12.9248 22.7344 18.1352C20.6006 16.2661 15.9805 15 10.5 15Z" fill="#54D052"/>
</g>
<defs>
<clipPath id="clip0_74_8934">
<rect width="24" height="24" fill="white"/>
</clipPath>
</defs>
</svg>
