<svg width="24" height="24" viewBox="0 0 24 24" fill="none" xmlns="http://www.w3.org/2000/svg">
<path d="M16.2442 18.2891C13.446 18.2891 11.168 16.0111 11.168 13.2127C11.168 10.4143 13.446 8.13623 16.2442 8.13623C19.0426 8.13623 21.3207 10.4143 21.3207 13.2127C21.3207 16.011 19.0426 18.2891 16.2442 18.2891ZM16.2442 9.15164C14.0043 9.15164 12.1832 10.9728 12.1832 13.2127C12.1832 15.4527 14.0043 17.2737 16.2442 17.2737C18.4842 17.2737 20.3055 15.4527 20.3055 13.2127C20.3055 10.9728 18.4842 9.15164 16.2442 9.15164Z" fill="#54D052"/>
<path d="M19.8316 16.0855L23.9999 20.2538L23.2821 20.9718L19.1138 16.8035L19.8316 16.0855ZM3.04584 21.0303V17.7815H2.03062C0.913703 17.7815 0 16.8678 0 15.7509V2.04464C0 0.927911 0.913751 0.0141602 2.03062 0.0141602H19.7979C20.9147 0.0141602 21.8286 0.927911 21.8286 2.04459V8.13626H20.8131V2.04459C20.8131 1.48635 20.3564 1.02938 19.7979 1.02938H2.03062C1.47219 1.02938 1.01522 1.48635 1.01522 2.04459V15.7509C1.01522 16.3093 1.47219 16.7663 2.03062 16.7663H4.06105V19.2918L8.56008 16.7663H10.6604V17.7815H8.8265L3.04584 21.0303Z" fill="#54D052"/>
</svg>
