<svg width="24" height="17" viewBox="0 0 24 17" fill="none" xmlns="http://www.w3.org/2000/svg">
<path d="M12.2804 11.0942L9.7415 8.55529C9.65074 8.45977 9.60089 8.33257 9.60258 8.20081C9.60427 8.06906 9.65736 7.94318 9.75053 7.85001C9.8437 7.75683 9.96958 7.70375 10.1013 7.70206C10.2331 7.70037 10.3603 7.75022 10.4558 7.84098L12.6379 10.0231L17.3331 5.32792C17.4286 5.23717 17.5558 5.18732 17.6876 5.18901C17.8193 5.19069 17.9452 5.24378 18.0384 5.33695C18.1315 5.43012 18.1846 5.55601 18.1863 5.68776C18.188 5.81951 18.1381 5.94671 18.0474 6.04224L12.9948 11.0949C12.8999 11.1895 12.7714 11.2425 12.6375 11.2424C12.5035 11.2423 12.3751 11.189 12.2804 11.0942Z" fill="#58B4E7"/>
<path d="M22.3579 16.4211H5.43158C4.99607 16.4211 4.57839 16.248 4.27044 15.9401C3.96248 15.6321 3.78947 15.2145 3.78947 14.7789V6.02084C3.78947 5.93885 3.76288 5.85907 3.71368 5.79347L0.126316 1.01053C0.0559411 0.916693 0.0130858 0.805116 0.00255232 0.688298C-0.00798114 0.57148 0.0142233 0.454037 0.0666778 0.349128C0.119132 0.244219 0.199764 0.15599 0.299539 0.0943258C0.399313 0.0326619 0.514288 0 0.631579 0H22.3579C22.7934 0 23.2111 0.173007 23.519 0.480961C23.827 0.788916 24 1.20659 24 1.64211V14.7789C24 15.2145 23.827 15.6321 23.519 15.9401C23.2111 16.248 22.7934 16.4211 22.3579 16.4211ZM1.89474 1.26316L4.72421 5.03558C4.93674 5.32016 5.05191 5.66566 5.05263 6.02084V14.7789C5.05263 14.8794 5.09256 14.9758 5.16362 15.0469C5.23469 15.118 5.33108 15.1579 5.43158 15.1579H22.3579C22.4584 15.1579 22.5548 15.118 22.6259 15.0469C22.6969 14.9758 22.7368 14.8794 22.7368 14.7789V1.64211C22.7368 1.5416 22.6969 1.44522 22.6259 1.37415C22.5548 1.30308 22.4584 1.26316 22.3579 1.26316H1.89474Z" fill="#58B4E7"/>
</svg>
