<svg width="21" height="21" viewBox="0 0 21 21" fill="none" xmlns="http://www.w3.org/2000/svg">
<path d="M8.58243 16.0007L11.6938 19.0979C11.8847 19.2934 12.1234 19.4359 12.3863 19.511C12.6491 19.5861 12.927 19.5913 13.1925 19.526C13.4596 19.4639 13.7062 19.3341 13.9087 19.1491C14.1112 18.9641 14.2626 18.7303 14.3485 18.4699L19.4581 3.15537C19.5648 2.86843 19.5868 2.5569 19.5215 2.25781C19.4562 1.95871 19.3065 1.68466 19.0901 1.4682C18.8737 1.25174 18.5995 1.10198 18.3005 1.03673C18.0014 0.971486 17.6898 0.993487 17.4029 1.10012L2.08842 6.2097C1.81902 6.30171 1.57908 6.46401 1.3934 6.6798C1.20773 6.89559 1.08304 7.15704 1.03224 7.43714C0.979802 7.6919 0.991475 7.95568 1.06621 8.20481C1.14095 8.45393 1.27641 8.68059 1.46042 8.8644L5.3711 12.7751L5.24264 17.7277L8.58243 16.0007Z" stroke="#58B4E7" stroke-linecap="round" stroke-linejoin="round"/>
<path d="M19.0015 1.41406L5.37109 12.775" stroke="#58B4E7" stroke-linecap="round" stroke-linejoin="round"/>
</svg>
