<svg width="18" height="19" viewBox="0 0 18 19" fill="none" xmlns="http://www.w3.org/2000/svg">
<path d="M17.3974 16.8V16.8002C17.3975 17.114 17.2754 17.4196 17.0501 17.6551C16.8268 17.8885 16.5181 18.0357 16.1833 18.0627L16.0618 18.0667H2.58999H2.5898C2.24972 18.0668 1.92527 17.9421 1.68091 17.7225C1.44009 17.506 1.29499 17.214 1.26803 16.9052L1.26406 16.7897V15.8667C1.26406 15.8667 1.26406 15.8667 1.26406 15.8667C1.26413 14.8247 1.67905 13.8193 2.42812 13.0611C3.17644 12.3036 4.20079 11.8516 5.28943 11.8044L5.48557 11.8H13.1825C13.1826 11.8 13.1826 11.8 13.1826 11.8C14.2744 11.8001 15.3208 12.2088 16.1041 12.9359C16.8854 13.661 17.3447 14.646 17.3929 15.6849L17.3974 15.8738V16.8ZM12.3177 1.79768L12.7254 1.37709L12.3177 1.79768C13.1062 2.56187 13.5455 3.59428 13.5455 4.66667C13.5455 5.73906 13.1062 6.77146 12.3177 7.53566C11.5286 8.30047 10.4545 8.73333 9.33073 8.73333C8.20695 8.73333 7.13282 8.30047 6.34373 7.53566C5.55527 6.77146 5.11591 5.73906 5.11591 4.66667C5.11591 3.59428 5.55527 2.56187 6.34373 1.79768C7.13282 1.03286 8.20695 0.6 9.33073 0.6C10.4545 0.6 11.5286 1.03286 12.3177 1.79768Z" stroke="#131313" stroke-width="1.2"/>
</svg>
