<svg width="24" height="24" viewBox="0 0 24 24" fill="none" xmlns="http://www.w3.org/2000/svg">
<path d="M21.4289 0.856934H2.57171C1.62493 0.856934 0.857422 1.62445 0.857422 2.57122V12.8569C0.857422 13.8037 1.62493 14.5712 2.57171 14.5712H21.4289C22.3757 14.5712 23.1431 13.8037 23.1431 12.8569V2.57122C23.1431 1.62445 22.3757 0.856934 21.4289 0.856934Z" stroke="#58B4E7" stroke-linecap="round" stroke-linejoin="round"/>
<path d="M12.0001 10.2854C13.4203 10.2854 14.5716 9.13417 14.5716 7.71401C14.5716 6.29384 13.4203 5.14258 12.0001 5.14258C10.58 5.14258 9.42871 6.29384 9.42871 7.71401C9.42871 9.13417 10.58 10.2854 12.0001 10.2854Z" stroke="#58B4E7" stroke-linecap="round" stroke-linejoin="round"/>
<path d="M2.57129 18.8569H21.4284" stroke="#58B4E7" stroke-linecap="round" stroke-linejoin="round"/>
<path d="M4.28613 23.1426H19.7147" stroke="#58B4E7" stroke-linecap="round" stroke-linejoin="round"/>
<path d="M4.75767 8.14279C4.52098 8.14279 4.3291 7.95091 4.3291 7.71422C4.3291 7.47752 4.52098 7.28564 4.75767 7.28564" stroke="#58B4E7" stroke-linecap="round" stroke-linejoin="round"/>
<path d="M4.75781 8.14279C4.9945 8.14279 5.18638 7.95091 5.18638 7.71422C5.18638 7.47752 4.9945 7.28564 4.75781 7.28564" stroke="#58B4E7" stroke-linecap="round" stroke-linejoin="round"/>
<path d="M19.243 8.14279C19.0063 8.14279 18.8145 7.95091 18.8145 7.71422C18.8145 7.47752 19.0063 7.28564 19.243 7.28564" stroke="#58B4E7" stroke-linecap="round" stroke-linejoin="round"/>
<path d="M19.2432 8.14279C19.4799 8.14279 19.6717 7.95091 19.6717 7.71422C19.6717 7.47752 19.4799 7.28564 19.2432 7.28564" stroke="#58B4E7" stroke-linecap="round" stroke-linejoin="round"/>
</svg>
