<svg width="12" height="16" viewBox="0 0 12 16" fill="none" xmlns="http://www.w3.org/2000/svg">
<g clip-path="url(#clip0_51_4887)">
<path d="M7.3219 0.988336C8.83971 1.52723 9.92534 2.98794 9.92534 4.70344V4.96616L8.88396 3.91529C8.88396 3.91529 7.58225 4.70344 6.02019 4.70344C4.45813 4.70344 3.15641 3.91529 3.15641 3.91529L2.11504 4.96616V4.70344C2.11504 2.98823 3.2036 1.52723 4.71847 0.988598C5.12718 0.841215 5.56459 0.762695 6.02019 0.762695C6.47579 0.762695 6.91577 0.841182 7.3219 0.988336Z" fill="#E6E9ED"/>
<path d="M7.3219 0.988336C6.91577 0.841215 6.47579 0.762695 6.02018 0.762695C5.88822 0.762695 5.75831 0.771168 5.62967 0.784238C5.94569 0.81606 6.25192 0.88407 6.54012 0.988598C7.88681 1.46658 8.89122 2.6711 9.10109 4.1344L9.92533 4.96616V4.70344C9.92533 2.98797 8.8397 1.52723 7.3219 0.988336Z" fill="#CCD1D9"/>
<path d="M9.92534 4.96615V6.54245C9.92534 8.08692 9.04541 9.42425 7.76455 10.0678C7.23866 10.3332 6.64768 10.4829 6.02019 10.4829C5.39299 10.4829 4.80175 10.3332 4.27608 10.0678C2.99522 9.42155 2.11504 8.08696 2.11504 6.54245V4.96615L3.15641 3.91528C3.15641 3.91528 4.45813 4.70343 6.02019 4.70343C7.58225 4.70343 8.88396 3.91528 8.88396 3.91528L9.92534 4.96615Z" fill="#EAC6BB"/>
<path d="M9.14356 4.17725V6.54245C9.14356 8.08692 8.2636 9.42425 6.98261 10.0678C6.56769 10.2772 6.11111 10.4112 5.62941 10.4596C5.75805 10.4727 5.888 10.4829 6.02019 10.4829C6.64765 10.4829 7.23892 10.3332 7.76455 10.0678C9.04541 9.42425 9.92534 8.08696 9.92534 6.54245V4.96615L9.14356 4.17725Z" fill="#D3B1A9"/>
<path d="M3.15641 12.8447L4.71847 15.7373H0.552976C0.409853 15.7373 0.292633 15.6217 0.292633 15.4746V13.6381C0.292633 12.4744 1.22466 11.5338 2.37538 11.5338H4.19778V12.5847L3.15641 12.8447Z" fill="#656D78"/>
<path d="M10.1857 13.3728V14.0296C10.1857 14.2476 10.0112 14.4237 9.79516 14.4237C9.57931 14.4237 9.40465 14.2476 9.40465 14.0296V13.3728H10.1857Z" fill="#ED5565"/>
<path d="M8.88396 12.8447L7.84259 12.5847V11.5364L9.66499 11.5338C10.8159 11.5338 11.7477 12.4743 11.7477 13.6355V15.4746C11.7477 15.6217 11.6308 15.7373 11.4874 15.7373H7.3219L8.88396 12.8447ZM9.79516 14.4237C10.0112 14.4237 10.1857 14.2477 10.1857 14.0296V13.3728H9.40465V14.0296C9.40465 14.2477 9.5793 14.4237 9.79516 14.4237Z" fill="#656D78"/>
<path d="M9.66499 11.5338L8.9043 11.5348C10.0453 11.5464 10.966 12.4817 10.966 13.6356V15.4746C10.966 15.6217 10.849 15.7373 10.7056 15.7373H11.4874C11.6308 15.7373 11.7477 15.6217 11.7477 15.4746V13.6356C11.7477 12.4744 10.8159 11.5338 9.66499 11.5338V11.5338Z" fill="#434A54"/>
<path d="M7.84259 10.7482L6.54087 11.5338V11.5364H5.4995V11.5338L4.19778 10.7482V10.2202L4.27608 10.0679C4.80198 10.3333 5.39296 10.483 6.02019 10.483C6.64765 10.483 7.23892 10.3333 7.76455 10.0679L7.84259 10.2202V10.7482Z" fill="#F5F7FA"/>
<path d="M5.4995 11.5364V12.0619L4.19778 12.5873V10.7483L5.4995 11.5339V11.5364ZM7.84259 11.5364V12.5873L6.54087 12.0619V11.5339L7.84259 10.7483V11.5364Z" fill="#DA4453"/>
<path d="M6.54087 12.3245V12.0618L7.84259 12.5872L6.54087 15.7372H5.4995L4.19778 12.5872L5.4995 12.0618V12.3245H6.54087Z" fill="#F5F7FA"/>
<path d="M7.3219 15.7373H6.54087L7.84258 12.5873V12.5847L8.88396 12.8447L7.3219 15.7373ZM4.19778 12.5873L5.49949 15.7373H4.71846L3.1564 12.8447L4.19778 12.5847V12.5873Z" fill="#AAB2BD"/>
<path d="M6.54087 12.0618V12.3245H5.4995V11.2734H6.54087V12.0618Z" fill="#ED5565"/>
<path d="M8.88449 13.1078C8.86316 13.1077 8.84191 13.1051 8.82116 13.1001L7.7793 12.8376C7.63986 12.8025 7.55518 12.6598 7.58951 12.519C7.62472 12.3784 7.76531 12.2931 7.90541 12.3274L8.94727 12.5899C9.08675 12.625 9.17139 12.7677 9.13706 12.9085C9.12292 12.9654 9.09041 13.0158 9.04467 13.0519C8.99892 13.088 8.94256 13.1076 8.88449 13.1078Z" fill="black"/>
<path d="M7.32191 15.9984C7.27842 15.9985 7.23562 15.9875 7.19747 15.9664C7.07123 15.8967 7.02457 15.7373 7.09359 15.6101L8.65565 12.7195C8.72471 12.592 8.88322 12.545 9.00868 12.6146C9.13491 12.6842 9.18158 12.8437 9.11255 12.9709L7.55049 15.8616C7.52814 15.903 7.49511 15.9377 7.45487 15.9618C7.41464 15.9858 7.3687 15.9985 7.32191 15.9984ZM6.54114 15.9984C6.50674 15.9986 6.47268 15.9917 6.44098 15.9782C6.40938 15.9649 6.38069 15.9455 6.35654 15.9211C6.33239 15.8966 6.31326 15.8676 6.30025 15.8357C6.28724 15.8038 6.28059 15.7696 6.2807 15.735C6.28081 15.7005 6.28766 15.6664 6.30088 15.6345L7.60207 12.4814C7.65753 12.3475 7.81032 12.2844 7.94251 12.3401C8.07535 12.3957 8.13802 12.5498 8.0826 12.6837L6.78141 15.8368C6.76169 15.8847 6.72834 15.9256 6.68558 15.9544C6.64281 15.9832 6.59254 15.9985 6.54114 15.9984ZM3.15616 13.1078C3.09811 13.1076 3.04177 13.088 2.99603 13.0519C2.9503 13.0158 2.91777 12.9654 2.90359 12.9086C2.869 12.7677 2.95368 12.6251 3.09338 12.5899L4.13524 12.3275C4.27407 12.2931 4.41593 12.3781 4.45114 12.519C4.48573 12.6599 4.40106 12.8025 4.26135 12.8376L3.21949 13.1001C3.19874 13.1051 3.17749 13.1077 3.15616 13.1078Z" fill="black"/>
<path d="M4.71873 15.9984C4.67192 15.9985 4.62596 15.9858 4.58569 15.9617C4.54543 15.9376 4.51234 15.903 4.48992 15.8616L2.92786 12.9709C2.85884 12.8437 2.90547 12.684 3.0317 12.6146C3.15719 12.545 3.31593 12.592 3.38473 12.7195L4.94679 15.6102C5.01578 15.7373 4.96915 15.897 4.84291 15.9664C4.80487 15.9875 4.76214 15.9985 4.71873 15.9984ZM5.4995 15.9984C5.4481 15.9985 5.39783 15.9832 5.35507 15.9544C5.3123 15.9256 5.27895 15.8847 5.25923 15.8368L3.95804 12.6837C3.90262 12.5498 3.9653 12.3957 4.09814 12.3401C4.23059 12.2841 4.38311 12.3475 4.43853 12.4814L5.73976 15.6345C5.75298 15.6664 5.75983 15.7005 5.75994 15.735C5.76005 15.7696 5.75341 15.8038 5.74039 15.8357C5.72738 15.8676 5.70825 15.8966 5.6841 15.9211C5.65995 15.9455 5.63126 15.9649 5.59967 15.9782C5.56797 15.9917 5.5339 15.9986 5.4995 15.9984ZM0.292631 13.8991C0.25843 13.8991 0.224557 13.8923 0.192951 13.8791C0.161346 13.866 0.132629 13.8466 0.108445 13.8222C0.0842614 13.7978 0.0650863 13.7688 0.052018 13.7369C0.0389497 13.705 0.032245 13.6708 0.0322878 13.6363C0.0322878 12.3322 1.08359 11.2714 2.3759 11.2714C2.5199 11.2714 2.63624 11.3887 2.63624 11.5341C2.63624 11.6794 2.5199 11.7968 2.3759 11.7968C1.37075 11.7968 0.552975 12.622 0.552975 13.6363C0.552975 13.7816 0.436666 13.8991 0.292631 13.8991ZM11.7477 13.8988C11.7135 13.8988 11.6797 13.8921 11.6481 13.8789C11.6165 13.8657 11.5877 13.8463 11.5636 13.8219C11.5394 13.7975 11.5202 13.7686 11.5071 13.7367C11.4941 13.7048 11.4874 13.6706 11.4874 13.6361C11.4874 12.6223 10.6696 11.7971 9.66499 11.7971C9.63079 11.7971 9.59692 11.7903 9.56531 11.7771C9.53371 11.764 9.50499 11.7446 9.48081 11.7202C9.45662 11.6958 9.43745 11.6668 9.42438 11.6349C9.41131 11.603 9.40461 11.5689 9.40465 11.5343C9.40465 11.3891 9.52096 11.2716 9.66499 11.2716C10.957 11.2716 12.0081 12.3322 12.0081 13.6361C12.0081 13.7814 11.8918 13.8988 11.7477 13.8988Z" fill="black"/>
<path d="M4.19778 11.7971L2.3759 11.7968C2.30685 11.7968 2.24063 11.7691 2.19181 11.7198C2.14298 11.6706 2.11556 11.6038 2.11556 11.5341C2.11556 11.3887 2.23225 11.2714 2.3759 11.2714L4.19778 11.2716C4.34182 11.2716 4.45813 11.3894 4.45813 11.5343C4.45813 11.6797 4.34143 11.7971 4.19778 11.7971ZM7.84259 11.7991C7.77358 11.7991 7.7074 11.7715 7.65858 11.7222C7.60976 11.673 7.58231 11.6063 7.58225 11.5366C7.58199 11.3917 7.69829 11.2739 7.84233 11.2737L9.66473 11.2716H9.66499C9.80864 11.2716 9.92508 11.3891 9.92534 11.5341C9.9256 11.679 9.80929 11.7968 9.66525 11.7971L7.84259 11.7991ZM0.292891 15.7373C0.223844 15.7373 0.157625 15.7096 0.108801 15.6603C0.0599769 15.6111 0.0325479 15.5442 0.0325479 15.4746L0.0322876 13.6363C0.0322876 13.4914 0.148596 13.3736 0.292631 13.3736C0.361678 13.3736 0.427898 13.4013 0.476722 13.4506C0.525545 13.4998 0.552974 13.5667 0.552974 13.6363L0.553235 15.4746C0.553235 15.6195 0.436926 15.7373 0.292891 15.7373Z" fill="black"/>
<path d="M0.553234 15.9999C0.266075 15.9999 0.032547 15.7643 0.032547 15.4745C0.032547 15.3292 0.148855 15.2118 0.29289 15.2118C0.436925 15.2118 0.553234 15.3292 0.553234 15.4745V15.475C0.697269 15.475 0.813577 15.5921 0.813577 15.7375C0.813581 15.772 0.806849 15.8061 0.793763 15.838C0.780678 15.8699 0.761497 15.8988 0.737318 15.9232C0.713139 15.9475 0.684435 15.9669 0.652848 15.98C0.621261 15.9932 0.587411 16 0.553234 15.9999ZM11.4874 15.9999C11.3434 15.9999 11.2271 15.8824 11.2271 15.7372C11.2271 15.5919 11.3434 15.4745 11.4874 15.4745H11.4879C11.4879 15.3292 11.604 15.2118 11.748 15.2118C11.7822 15.2118 11.816 15.2186 11.8476 15.2318C11.8792 15.245 11.9079 15.2643 11.932 15.2887C11.9562 15.3131 11.9753 15.3421 11.9884 15.374C12.0014 15.4059 12.0081 15.44 12.0081 15.4745C12.0081 15.7643 11.7746 15.9999 11.4874 15.9999Z" fill="black"/>
<path d="M11.7477 15.7373C11.6037 15.7373 11.4874 15.6198 11.4874 15.4746V13.6361C11.4874 13.4909 11.6037 13.3734 11.7477 13.3734C11.8918 13.3734 12.0081 13.4909 12.0081 13.6361V15.4746C12.0081 15.6198 11.8918 15.7373 11.7477 15.7373Z" fill="black"/>
<path d="M11.4874 16H0.553236C0.409201 16 0.292892 15.8825 0.292892 15.7373C0.292892 15.5919 0.409201 15.4745 0.553236 15.4745H11.4874C11.6314 15.4745 11.7477 15.5919 11.7477 15.7373C11.7477 15.8825 11.6314 16 11.4874 16ZM4.19778 12.8499C4.16358 12.85 4.12971 12.8432 4.0981 12.83C4.0665 12.8168 4.03778 12.7975 4.0136 12.7731C3.98941 12.7487 3.97024 12.7197 3.95717 12.6878C3.9441 12.6559 3.9374 12.6217 3.93744 12.5872V10.2205C3.93744 10.0751 4.05375 9.95776 4.19778 9.95776C4.34182 9.95776 4.45813 10.0751 4.45813 10.2205V12.5872C4.45813 12.7326 4.34182 12.8499 4.19778 12.8499ZM7.84259 12.8499C7.80839 12.85 7.77452 12.8432 7.74291 12.83C7.71131 12.8168 7.68259 12.7975 7.6584 12.7731C7.63422 12.7487 7.61505 12.7197 7.60198 12.6878C7.58891 12.6559 7.5822 12.6217 7.58225 12.5872V10.2205C7.58225 10.0751 7.69856 9.95776 7.84259 9.95776C7.98663 9.95776 8.10293 10.0751 8.10293 10.2205V12.5872C8.10293 12.7326 7.98663 12.8499 7.84259 12.8499Z" fill="black"/>
<path d="M6.02018 10.7459C3.7235 10.7459 1.85469 8.86009 1.85469 6.54248C1.85469 6.39752 1.971 6.27976 2.11503 6.27976C2.25907 6.27976 2.37538 6.39752 2.37538 6.54248C2.37538 8.57045 4.01027 10.2205 6.02018 10.2205C8.0301 10.2205 9.66499 8.57071 9.66499 6.54248C9.66499 6.39752 9.7813 6.27976 9.92534 6.27976C10.0694 6.27976 10.1857 6.39752 10.1857 6.54248C10.1857 8.86009 8.31687 10.7459 6.02018 10.7459ZM9.92534 4.96618C9.7813 4.96618 9.66499 4.84841 9.66499 4.70346C9.66499 2.67523 8.0301 1.02543 6.02018 1.02543C4.01027 1.02543 2.37538 2.67523 2.37538 4.70346C2.37538 4.84841 2.25907 4.96618 2.11503 4.96618C1.971 4.96618 1.85469 4.84841 1.85469 4.70346C1.85469 2.38584 3.7235 0.5 6.02018 0.5C8.31687 0.5 10.1857 2.38584 10.1857 4.70346C10.1857 4.84841 10.0694 4.96618 9.92534 4.96618Z" fill="black"/>
<path d="M2.11503 6.80524C1.971 6.80524 1.85469 6.68748 1.85469 6.54253V4.70351C1.85469 4.55856 1.971 4.4408 2.11503 4.4408C2.25907 4.4408 2.37538 4.55856 2.37538 4.70351V6.54253C2.37538 6.68787 2.25907 6.80524 2.11503 6.80524ZM9.92534 6.80498C9.7813 6.80498 9.66499 6.68722 9.66499 6.54226V4.70351C9.66499 4.55856 9.7813 4.4408 9.92534 4.4408C10.0694 4.4408 10.1857 4.55856 10.1857 4.70351V6.54226C10.1857 6.68722 10.0694 6.80498 9.92534 6.80498Z" fill="black"/>
<path d="M9.92534 5.22837C9.89115 5.22839 9.85729 5.22161 9.82571 5.2084C9.79412 5.1952 9.76543 5.17584 9.74127 5.15142L8.6999 4.10056C8.59804 3.99777 8.59804 3.8318 8.6999 3.72904C8.80176 3.62629 8.9662 3.62629 9.06803 3.72904L10.1094 4.77991C10.1336 4.80428 10.1528 4.83323 10.1659 4.86511C10.179 4.89698 10.1858 4.93116 10.1858 4.96567C10.1858 5.00018 10.179 5.03435 10.1659 5.06622C10.1528 5.0981 10.1336 5.12705 10.1094 5.15142C10.0852 5.17584 10.0566 5.1952 10.025 5.2084C9.99338 5.22161 9.95952 5.22839 9.92534 5.22837Z" fill="black"/>
<path d="M6.02018 4.96571C4.40449 4.96571 3.07811 4.17385 3.02229 4.14C2.9636 4.1039 2.92143 4.04586 2.90498 3.97852C2.88852 3.91118 2.89911 3.84 2.93444 3.78051C2.96978 3.72102 3.02699 3.67804 3.09359 3.66093C3.1602 3.64383 3.23081 3.65399 3.29003 3.68921C3.30246 3.69653 4.55282 4.44005 6.01992 4.44005C7.48689 4.44005 8.73739 3.69653 8.74985 3.68921C8.87403 3.6143 9.03307 3.65588 9.10681 3.77978C9.14223 3.83951 9.15272 3.91098 9.13599 3.9785C9.11927 4.04603 9.07668 4.10411 9.01758 4.14C8.96226 4.17359 7.6359 4.96571 6.02018 4.96571Z" fill="black"/>
<path d="M2.11504 5.22837C2.08085 5.22839 2.04699 5.22161 2.01541 5.20841C1.98382 5.1952 1.95513 5.17584 1.93098 5.15143C1.90676 5.12705 1.88756 5.0981 1.87445 5.06622C1.86135 5.03435 1.8546 5.00018 1.8546 4.96567C1.8546 4.93116 1.86135 4.89699 1.87445 4.86511C1.88756 4.83324 1.90676 4.80428 1.93098 4.77991L2.97235 3.72905C3.07418 3.62629 3.23865 3.62629 3.34047 3.72905C3.4423 3.8318 3.44233 3.99781 3.34047 4.10056L2.2991 5.15143C2.27495 5.17584 2.24625 5.1952 2.21467 5.20841C2.18308 5.22161 2.14923 5.22839 2.11504 5.22837ZM6.02019 3.12716C5.87615 3.12716 5.75985 3.0094 5.75985 2.86445V0.762716C5.75985 0.617763 5.87615 0.5 6.02019 0.5C6.16422 0.5 6.28053 0.617763 6.28053 0.762716V2.86445C6.28053 3.0094 6.16422 3.12716 6.02019 3.12716ZM7.84285 2.86471C7.78788 2.86464 7.73434 2.84705 7.68987 2.81445C7.64539 2.78185 7.61226 2.7359 7.5952 2.68317L7.07429 1.06852C7.0298 0.930625 7.10455 0.782486 7.24143 0.73743C7.37785 0.692046 7.5252 0.767971 7.56979 0.905897L8.09073 2.52052C8.13522 2.65844 8.06047 2.80658 7.92356 2.85161C7.89751 2.86026 7.87027 2.86468 7.84285 2.86471ZM4.19753 2.86471C4.1701 2.86468 4.14286 2.86026 4.11682 2.85161C3.98014 2.80662 3.90516 2.65844 3.94965 2.52052L4.47063 0.905897C4.5155 0.768003 4.66208 0.692078 4.79898 0.737463C4.93563 0.782519 5.01064 0.930658 4.96612 1.06855L4.44518 2.68317C4.42815 2.73592 4.39503 2.78189 4.35055 2.8145C4.30606 2.8471 4.2525 2.86468 4.19753 2.86471ZM9.79491 14.6857C9.43593 14.6857 9.14405 14.3911 9.14405 14.0289C9.14405 13.8835 9.26036 13.7662 9.40439 13.7662C9.5483 13.7662 9.66474 13.8835 9.66474 14.0289C9.66474 14.1011 9.72335 14.1602 9.79491 14.1602C9.86647 14.1602 9.92508 14.1011 9.92508 14.0289C9.92508 13.8835 10.0414 13.7662 10.1854 13.7662C10.3293 13.7662 10.4458 13.8835 10.4458 14.0289C10.4458 14.3911 10.1539 14.6857 9.79491 14.6857Z" fill="black"/>
<path d="M9.7949 15.2169C9.65087 15.2169 9.53456 15.0994 9.53456 14.9542V14.4232C9.53456 14.2779 9.65087 14.1605 9.7949 14.1605C9.93881 14.1605 10.0552 14.2779 10.0552 14.4232V14.9542C10.0552 15.0238 10.0278 15.0907 9.97899 15.1399C9.93017 15.1892 9.86395 15.2169 9.7949 15.2169ZM10.1854 13.6348H9.40439C9.26035 13.6348 9.14404 13.5173 9.14404 13.3721C9.14404 13.2267 9.26035 13.1094 9.40439 13.1094H10.1854C10.3293 13.1094 10.4458 13.2267 10.4458 13.3721C10.4458 13.5173 10.3293 13.6348 10.1854 13.6348Z" fill="black"/>
<path d="M10.1854 14.2916C10.0414 14.2916 9.92507 14.1741 9.92507 14.0289V13.3721C9.92507 13.2268 10.0414 13.1094 10.1854 13.1094C10.3293 13.1094 10.4458 13.2268 10.4458 13.3721V14.0289C10.4458 14.1741 10.3293 14.2916 10.1854 14.2916ZM9.40464 14.2916C9.26061 14.2916 9.1443 14.1741 9.1443 14.0289V13.3721C9.1443 13.2268 9.26061 13.1094 9.40464 13.1094C9.54868 13.1094 9.66499 13.2268 9.66499 13.3721V14.0289C9.66499 14.1741 9.54868 14.2916 9.40464 14.2916ZM6.54165 11.7953C6.49657 11.7954 6.45226 11.7836 6.41305 11.7611C6.37385 11.7387 6.3411 11.7064 6.31801 11.6673C6.2443 11.5428 6.28449 11.3815 6.40803 11.3072L7.70922 10.5229C7.83217 10.4486 7.99235 10.489 8.06622 10.6139C8.08376 10.6435 8.09535 10.6763 8.10031 10.7104C8.10528 10.7445 8.10354 10.7793 8.09518 10.8128C8.08682 10.8462 8.07201 10.8777 8.05159 10.9054C8.03118 10.933 8.00556 10.9564 7.97621 10.974L6.67498 11.7583C6.63464 11.7825 6.58858 11.7953 6.54165 11.7953Z" fill="black"/>
<path d="M7.84259 12.85C7.8103 12.85 7.7775 12.8443 7.74597 12.8314L6.44477 12.306C6.31128 12.2521 6.24619 12.0992 6.29947 11.9645C6.35284 11.8294 6.50566 11.764 6.63798 11.8179L7.93921 12.3433C8.07266 12.3972 8.13775 12.5501 8.08451 12.6848C8.06511 12.7335 8.03171 12.7753 7.9886 12.8048C7.94549 12.8342 7.89464 12.85 7.84259 12.85ZM5.49875 11.7953C5.45175 11.7953 5.40564 11.7824 5.36539 11.758L4.06419 10.9738C4.03483 10.9561 4.00921 10.9328 3.9888 10.9051C3.96839 10.8774 3.95358 10.846 3.94522 10.8125C3.93686 10.7791 3.93511 10.7443 3.94008 10.7102C3.94505 10.676 3.95664 10.6432 3.97418 10.6136C4.04779 10.4888 4.2077 10.4484 4.33114 10.5226L5.63221 11.3068C5.66158 11.3245 5.68722 11.3478 5.70765 11.3755C5.72808 11.4032 5.74291 11.4346 5.75128 11.4681C5.75965 11.5015 5.76141 11.5363 5.75644 11.5705C5.75148 11.6046 5.73989 11.6374 5.72235 11.667C5.69932 11.7062 5.6666 11.7386 5.62739 11.7611C5.58818 11.7836 5.54385 11.7954 5.49875 11.7953Z" fill="black"/>
<path d="M4.19778 12.85C4.14571 12.85 4.09484 12.8342 4.05172 12.8048C4.0086 12.7753 3.97521 12.7335 3.95585 12.6848C3.90261 12.55 3.9677 12.3971 4.10116 12.3432L5.40238 11.8178C5.53496 11.7639 5.68749 11.8294 5.74077 11.9644C5.79414 12.0991 5.72905 12.252 5.59562 12.3059L4.2944 12.8314C4.26364 12.8436 4.23085 12.8499 4.19778 12.85Z" fill="black"/>
<path d="M6.54087 12.5873H5.49897C5.46477 12.5873 5.4309 12.5805 5.39929 12.5673C5.36769 12.5542 5.33897 12.5348 5.31479 12.5104C5.2906 12.486 5.27143 12.457 5.25836 12.4251C5.24529 12.3932 5.23859 12.359 5.23863 12.3245V11.2737C5.23863 11.1285 5.35497 11.011 5.49897 11.011H6.54087C6.6849 11.011 6.80121 11.1285 6.80121 11.2737V12.3245C6.80121 12.4699 6.6849 12.5873 6.54087 12.5873ZM5.75932 12.0618H6.28053V11.5364H5.75932V12.0618ZM6.02793 13.6358C5.88402 13.6358 5.76631 13.5184 5.76631 13.3731C5.76631 13.2278 5.88135 13.1104 6.02513 13.1104H6.02793C6.1717 13.1104 6.28827 13.2278 6.28827 13.3731C6.28827 13.5184 6.1717 13.6358 6.02793 13.6358ZM6.02793 14.9515C5.88402 14.9515 5.76631 14.8341 5.76631 14.6888C5.76631 14.5435 5.88135 14.426 6.02513 14.426H6.02793C6.1717 14.426 6.28827 14.5435 6.28827 14.6888C6.28827 14.8341 6.1717 14.9515 6.02793 14.9515ZM4.97855 9.43466C4.94436 9.43471 4.91049 9.42794 4.8789 9.41474C4.84731 9.40153 4.81862 9.38215 4.79449 9.35771C4.77027 9.33334 4.75107 9.30439 4.73796 9.27251C4.72485 9.24064 4.71811 9.20647 4.71811 9.17196C4.71811 9.13745 4.72485 9.10328 4.73796 9.0714C4.75107 9.03953 4.77027 9.01057 4.79449 8.9862L5.31517 8.46077C5.33934 8.43636 5.36804 8.417 5.39962 8.4038C5.43121 8.39059 5.46506 8.38379 5.49925 8.38379C5.53344 8.38379 5.5673 8.39059 5.59888 8.4038C5.63047 8.417 5.65916 8.43636 5.68333 8.46077C5.70754 8.48514 5.72675 8.51409 5.73985 8.54597C5.75296 8.57784 5.75971 8.61201 5.75971 8.64652C5.75971 8.68103 5.75296 8.7152 5.73985 8.74708C5.72675 8.77895 5.70754 8.80791 5.68333 8.83228L5.16264 9.35771C5.1385 9.38216 5.10981 9.40154 5.07821 9.41474C5.04662 9.42795 5.01275 9.43472 4.97855 9.43466Z" fill="black"/>
<path d="M6.54087 8.90922H5.49924C5.46503 8.90926 5.43116 8.9025 5.39956 8.88931C5.36795 8.87612 5.33923 8.85677 5.31505 8.83237C5.29087 8.80797 5.27169 8.77899 5.25862 8.74709C5.24555 8.7152 5.23885 8.68102 5.23889 8.64651C5.23889 8.50129 5.35523 8.38379 5.49924 8.38379H6.54087C6.6849 8.38379 6.80121 8.50129 6.80121 8.64651C6.80121 8.79185 6.6849 8.90922 6.54087 8.90922Z" fill="black"/>
<path d="M7.06155 9.43464C7.02736 9.4347 6.99349 9.42793 6.9619 9.41472C6.93031 9.40152 6.90163 9.38214 6.87749 9.3577L6.3568 8.83226C6.33259 8.80789 6.31338 8.77894 6.30028 8.74706C6.28717 8.71519 6.28043 8.68102 6.28043 8.64651C6.28043 8.612 6.28717 8.57783 6.30028 8.54595C6.31338 8.51408 6.33259 8.48512 6.3568 8.46075C6.38097 8.43635 6.40966 8.417 6.44125 8.40379C6.47283 8.39059 6.50668 8.38379 6.54087 8.38379C6.57505 8.38379 6.6089 8.39059 6.64048 8.40379C6.67207 8.417 6.70076 8.43635 6.72493 8.46075L7.24561 8.98618C7.26982 9.01056 7.28903 9.03951 7.30214 9.07138C7.31524 9.10326 7.32199 9.13743 7.32199 9.17194C7.32199 9.20645 7.31524 9.24062 7.30214 9.2725C7.28903 9.30437 7.26982 9.33332 7.24561 9.3577C7.22148 9.38214 7.19279 9.40152 7.1612 9.41472C7.12961 9.42793 7.09574 9.4347 7.06155 9.43464Z" fill="black"/>
</g>
<defs>
<clipPath id="clip0_51_4887">
<rect width="12" height="15.5" fill="white" transform="translate(0 0.5)"/>
</clipPath>
</defs>
</svg>
