<svg width="11" height="11" viewBox="0 0 11 11" fill="none" xmlns="http://www.w3.org/2000/svg">
<g clip-path="url(#clip0_676_14606)">
<path d="M10.166 9.65289C10.166 9.7634 10.1221 9.86938 10.044 9.94752C9.96584 10.0257 9.85986 10.0696 9.74935 10.0696H0.582682C0.472175 10.0696 0.366195 10.0257 0.288054 9.94752C0.209914 9.86938 0.166016 9.7634 0.166016 9.65289C0.166016 9.54239 0.209914 9.43641 0.288054 9.35827C0.366195 9.28013 0.472175 9.23623 0.582682 9.23623H9.74935C9.85986 9.23623 9.96584 9.28013 10.044 9.35827C10.1221 9.43641 10.166 9.54239 10.166 9.65289ZM1.72852 6.31956C2.17352 6.31956 2.45768 6.04581 2.45768 5.90289C2.45768 5.79239 2.50158 5.68641 2.57972 5.60827C2.65786 5.53013 2.76384 5.48623 2.87435 5.48623C2.98486 5.48623 3.09084 5.53013 3.16898 5.60827C3.24712 5.68641 3.29102 5.79239 3.29102 5.90289C3.29102 6.03039 3.56643 6.31956 4.02018 6.31956C4.46518 6.31956 4.74935 6.04581 4.74935 5.90289C4.74935 5.79239 4.79325 5.68641 4.87139 5.60827C4.94953 5.53013 5.05551 5.48623 5.16602 5.48623C5.27652 5.48623 5.3825 5.53013 5.46064 5.60827C5.53878 5.68641 5.58268 5.79239 5.58268 5.90289C5.58268 6.03039 5.8581 6.31956 6.31185 6.31956C6.75685 6.31956 7.04102 6.04581 7.04102 5.90289C7.04102 5.79239 7.08491 5.68641 7.16305 5.60827C7.24119 5.53013 7.34718 5.48623 7.45768 5.48623C7.56819 5.48623 7.67417 5.53013 7.75231 5.60827C7.83045 5.68641 7.87435 5.79239 7.87435 5.90289C7.87435 6.03039 8.14977 6.31956 8.60352 6.31956C9.05727 6.31956 9.33268 6.03039 9.33268 5.90289C9.33202 5.35056 9.11232 4.82104 8.72176 4.43049C8.3312 4.03993 7.80168 3.82022 7.24935 3.81956H5.58268V2.90956C5.82556 2.82369 6.03598 2.66488 6.18515 2.45485C6.33431 2.24482 6.41495 1.99384 6.41602 1.73623C6.32656 1.20539 6.08515 0.71187 5.72102 0.315395C5.64894 0.241169 5.56269 0.182161 5.4674 0.141867C5.3721 0.101572 5.26969 0.0808105 5.16622 0.0808105C5.06276 0.0808105 4.96035 0.101572 4.86505 0.141867C4.76975 0.182161 4.68351 0.241169 4.61143 0.315395C4.24701 0.711724 4.00543 1.2053 3.91602 1.73623C3.91708 1.99384 3.99772 2.24482 4.14689 2.45485C4.29605 2.66488 4.50647 2.82369 4.74935 2.90956V3.81956H3.08268C2.53035 3.82022 2.00083 4.03993 1.61027 4.43049C1.21972 4.82104 1.00001 5.35056 0.999349 5.90289C0.999349 6.03039 1.27477 6.31956 1.72852 6.31956ZM1.41602 8.40289H8.91602C9.02652 8.40289 9.1325 8.359 9.21064 8.28086C9.28878 8.20272 9.33268 8.09673 9.33268 7.98623V6.99664C9.10305 7.0986 8.85476 7.15181 8.60352 7.15289C8.18393 7.15607 7.77722 7.00818 7.45768 6.73623C7.13628 7.00414 6.7314 7.15139 6.31298 7.15253C5.89455 7.15367 5.48887 7.00864 5.16602 6.74248C4.84316 7.00864 4.43748 7.15367 4.01906 7.15253C3.60063 7.15139 3.19575 7.00414 2.87435 6.73623C2.55481 7.00818 2.1481 7.15607 1.72852 7.15289C1.47727 7.15181 1.22898 7.0986 0.999349 6.99664V7.98623C0.999349 8.09673 1.04325 8.20272 1.12139 8.28086C1.19953 8.359 1.30551 8.40289 1.41602 8.40289Z" fill="#E7AE58"/>
</g>
<defs>
<clipPath id="clip0_676_14606">
<rect width="10" height="10" fill="white" transform="translate(0.166016 0.0695801)"/>
</clipPath>
</defs>
</svg>
