<svg width="15" height="15" viewBox="0 0 15 15" fill="none" xmlns="http://www.w3.org/2000/svg">
<g clip-path="url(#clip0_672_12177)">
<path d="M2.28906 10.5212V8.52124C2.28906 8.25602 2.39442 8.00167 2.58195 7.81413C2.76949 7.6266 3.02384 7.52124 3.28906 7.52124H11.2891C11.5543 7.52124 11.8087 7.6266 11.9962 7.81413C12.1837 8.00167 12.2891 8.25602 12.2891 8.52124V10.5212" stroke="#943F7F" stroke-width="0.75" stroke-linecap="round" stroke-linejoin="round"/>
<path d="M7.28906 4.52124V10.5212" stroke="#943F7F" stroke-width="0.75" stroke-linecap="round" stroke-linejoin="round"/>
<path d="M5.78906 2.52124V3.52124C5.78906 4.07352 6.23678 4.52124 6.78906 4.52124H7.78906C8.34134 4.52124 8.78906 4.07352 8.78906 3.52124V2.52124C8.78906 1.96896 8.34134 1.52124 7.78906 1.52124H6.78906C6.23678 1.52124 5.78906 1.96896 5.78906 2.52124Z" stroke="#943F7F" stroke-width="0.75" stroke-linecap="round" stroke-linejoin="round"/>
<path d="M5.78906 11.5212V12.5212C5.78906 13.0735 6.23678 13.5212 6.78906 13.5212H7.78906C8.34134 13.5212 8.78906 13.0735 8.78906 12.5212V11.5212C8.78906 10.9689 8.34134 10.5212 7.78906 10.5212H6.78906C6.23678 10.5212 5.78906 10.9689 5.78906 11.5212Z" stroke="#943F7F" stroke-width="0.75" stroke-linecap="round" stroke-linejoin="round"/>
<path d="M0.789062 11.5212V12.5212C0.789062 13.0735 1.23678 13.5212 1.78906 13.5212H2.78906C3.34134 13.5212 3.78906 13.0735 3.78906 12.5212V11.5212C3.78906 10.9689 3.34134 10.5212 2.78906 10.5212H1.78906C1.23678 10.5212 0.789062 10.9689 0.789062 11.5212Z" stroke="#943F7F" stroke-width="0.75" stroke-linecap="round" stroke-linejoin="round"/>
<path d="M10.7891 11.5212V12.5212C10.7891 13.0735 11.2368 13.5212 11.7891 13.5212H12.7891C13.3414 13.5212 13.7891 13.0735 13.7891 12.5212V11.5212C13.7891 10.9689 13.3414 10.5212 12.7891 10.5212H11.7891C11.2368 10.5212 10.7891 10.9689 10.7891 11.5212Z" stroke="#943F7F" stroke-width="0.75" stroke-linecap="round" stroke-linejoin="round"/>
</g>
<defs>
<clipPath id="clip0_672_12177">
<rect width="14" height="14" fill="white" transform="translate(0.289062 0.52124)"/>
</clipPath>
</defs>
</svg>
