<svg width="136" height="95" viewBox="0 0 136 95" fill="none" xmlns="http://www.w3.org/2000/svg">
<path d="M37.1529 51.7199C37.933 49.7104 39.1628 47.8904 40.7554 46.3887C42.348 44.8871 44.2645 43.7405 46.3689 43.0302C48.1169 42.413 49.9158 41.9382 51.7465 41.6108C52.978 41.392 58.185 40.7547 58.6903 40.7644C58.8107 43.9023 58.9378 46.8987 58.8341 49.8822C58.6868 54.0114 57.6527 58.0408 57.2344 62.3792C58.1168 62.9786 59.1296 63.377 60.1958 63.5443C61.262 63.7116 62.3538 63.6434 63.3885 63.3448C69.5659 37.855 61.6551 9.45248 40.593 0C39.6936 0.547677 38.9759 1.33144 38.5246 2.25872C38.0734 3.186 37.9075 4.21811 38.0465 5.23316C38.7158 5.71271 39.1575 6.07634 39.6494 6.39174C47.4849 11.5355 53.2859 19.072 56.1135 27.7813C57.0471 30.4107 56.2373 31.2346 53.6305 31.579C50.4146 32.0918 47.1164 31.8188 44.0389 30.7851C40.9614 29.7515 38.2033 27.9903 36.0185 25.6636C33.4954 23.0889 31.7786 23.1275 29.4328 25.2967C29.0747 25.6185 29.4329 25.2807 27.9639 26.6517C31.8656 31.7455 37.4303 35.4341 43.7686 37.1276C38.5678 39.5337 34.2117 43.3494 31.2365 48.1056C30.8282 48.73 33.0636 50.204 33.4752 50.4872C33.8099 50.7125 36.952 52.2123 37.1562 51.7134" fill="#FD9E2C"/>
<path d="M48.3171 21.0118C48.3171 21.8164 48.069 22.603 47.6042 23.2719C47.1395 23.9409 46.4789 24.4624 45.706 24.7703C44.9331 25.0782 44.0827 25.1587 43.2622 25.0018C42.4417 24.8448 41.6879 24.4574 41.0963 23.8885C40.5048 23.3195 40.1019 22.5947 39.9387 21.8055C39.7755 21.0164 39.8593 20.1984 40.1795 19.4551C40.4996 18.7117 41.0417 18.0764 41.7373 17.6294C42.4329 17.1824 43.2507 16.9438 44.0873 16.9438C44.6428 16.9438 45.1928 17.049 45.706 17.2534C46.2192 17.4579 46.6853 17.7576 47.0781 18.1353C47.4709 18.5131 47.7826 18.9615 47.9952 19.4551C48.2077 19.9487 48.3171 20.4776 48.3171 21.0118Z" fill="white"/>
<path d="M97.9656 51.7199C97.1853 49.7105 95.9552 47.8906 94.3627 46.3889C92.7701 44.8873 90.8539 43.7407 88.7496 43.0302C87.0026 42.4132 85.2048 41.9384 83.3753 41.6108C82.1438 41.392 76.9369 40.7547 76.4282 40.7644C76.3078 43.9023 76.1807 46.8987 76.2844 49.8822C76.4317 54.0114 77.4656 58.0408 77.8839 62.3792C77.0015 62.9786 75.9889 63.377 74.9227 63.5443C73.8565 63.7116 72.7647 63.6434 71.73 63.3448C65.5526 37.855 73.4634 9.45248 94.5255 0C95.4249 0.547677 96.1424 1.33144 96.5937 2.25872C97.0449 3.186 97.2109 4.21811 97.072 5.23316C96.4027 5.71271 95.9577 6.07634 95.4691 6.39174C87.6335 11.5353 81.8324 19.0719 79.005 27.7813C78.0714 30.4107 78.8811 31.2346 81.4846 31.579C84.7004 32.0918 87.9989 31.8188 91.0764 30.7851C94.1539 29.7515 96.9117 27.9903 99.0965 25.6636C101.62 23.0889 103.336 23.1275 105.682 25.2967C106.04 25.6185 105.682 25.2807 107.151 26.6517C103.25 31.7457 97.6848 35.4343 91.3464 37.1276C96.5472 39.5337 100.903 43.3494 103.879 48.1056C104.287 48.73 102.051 50.204 101.64 50.4872C101.305 50.7125 98.1663 52.2123 97.9589 51.7134" fill="#EB401C"/>
<path d="M86.7998 21.007C86.7998 21.8116 87.0478 22.5981 87.5126 23.2671C87.9774 23.9361 88.638 24.4575 89.4109 24.7654C90.1838 25.0733 91.0342 25.1539 91.8547 24.9969C92.6752 24.8399 93.429 24.4525 94.0205 23.8836C94.6121 23.3146 95.0148 22.5898 95.178 21.8007C95.3412 21.0115 95.2575 20.1936 94.9374 19.4502C94.6172 18.7069 94.075 18.0715 93.3794 17.6245C92.6838 17.1775 91.8661 16.939 91.0295 16.939C90.4741 16.939 89.9241 17.0441 89.4109 17.2485C88.8977 17.453 88.4313 17.7527 88.0386 18.1304C87.6458 18.5082 87.3343 18.9566 87.1217 19.4502C86.9091 19.9438 86.7998 20.4727 86.7998 21.007Z" fill="white"/>
<path d="M31.7049 92.8182C31.7082 93.0674 31.6615 93.3147 31.5677 93.5455C31.4738 93.7764 31.3347 93.9861 31.1585 94.1623C30.9822 94.3386 30.7725 94.4777 30.5416 94.5716C30.3107 94.6654 30.0634 94.7121 29.8142 94.7089C29.4812 94.7019 29.1552 94.6118 28.8659 94.4466C28.5766 94.2815 28.3333 94.0467 28.158 93.7635L23.6655 88.055L21.2332 89.7474V92.7142C21.243 93.2281 21.0502 93.7252 20.6963 94.098C20.3425 94.4708 19.8562 94.6894 19.3425 94.7064C18.8198 94.6982 18.3213 94.4846 17.9549 94.1118C17.5884 93.739 17.3833 93.237 17.384 92.7142V80.2695C17.3847 79.7503 17.5912 79.2525 17.9584 78.8853C18.3255 78.5182 18.8233 78.3117 19.3425 78.311C19.8521 78.3225 20.3367 78.5346 20.6907 78.9013C21.0448 79.2681 21.2397 79.7598 21.2332 80.2695V85.8305L28.0564 79.8173C28.4347 79.4708 28.9289 79.2785 29.4419 79.2782C29.6705 79.2797 29.8965 79.3265 30.107 79.4156C30.3175 79.5048 30.5083 79.6346 30.6685 79.7977C30.8287 79.9608 30.955 80.1539 31.0404 80.366C31.1257 80.5781 31.1684 80.8049 31.1658 81.0335C31.162 81.3248 31.0898 81.6112 30.9549 81.8695C30.8201 82.1278 30.6264 82.3508 30.3896 82.5205L26.4703 85.8644L31.0642 91.4254C31.4326 91.7985 31.6592 92.2885 31.7049 92.8109" fill="white"/>
<path d="M34.6778 92.7164V81.1978C34.6778 80.6848 34.8815 80.1927 35.2443 79.83C35.607 79.4672 36.099 79.2634 36.612 79.2634C36.8672 79.2592 37.1207 79.3063 37.3573 79.402C37.5939 79.4977 37.8087 79.6401 37.9892 79.8205C38.1696 80.001 38.312 80.2159 38.4077 80.4525C38.5034 80.6891 38.5505 80.9426 38.5463 81.1978V92.7164C38.5504 92.9743 38.5037 93.2305 38.4087 93.4703C38.3137 93.7101 38.1723 93.9288 37.9926 94.1139C37.8129 94.299 37.5984 94.4468 37.3615 94.5489C37.1246 94.6509 36.8699 94.7052 36.612 94.7087C36.0929 94.696 35.5995 94.4802 35.2378 94.1077C34.8761 93.7352 34.6751 93.2356 34.6778 92.7164Z" fill="white"/>
<path d="M56.8003 84.5067V92.7152C56.8046 93.2276 56.6098 93.7215 56.2571 94.0931C55.9044 94.4648 55.4213 94.685 54.9094 94.7076C54.3885 94.6938 53.8933 94.4784 53.528 94.1068C53.1627 93.7352 52.9558 93.2363 52.951 92.7152V85.3239C52.9987 84.9487 52.9633 84.5676 52.8474 84.2076C52.7314 83.8476 52.5378 83.5175 52.2801 83.2406C52.0224 82.9638 51.7071 82.747 51.3563 82.6056C51.0055 82.4642 50.6279 82.4017 50.2502 82.4225C49.5072 82.452 48.7874 82.6892 48.1724 83.1071C47.5574 83.5251 47.0719 84.1071 46.771 84.7871V92.7249C46.7737 93.2441 46.5725 93.7437 46.2108 94.1162C45.8491 94.4888 45.3558 94.7046 44.8368 94.7172C44.5788 94.7138 44.3241 94.6594 44.0872 94.5573C43.8503 94.4553 43.6359 94.3075 43.4562 94.1224C43.2765 93.9374 43.1351 93.7187 43.04 93.4789C42.945 93.2391 42.8982 92.9828 42.9024 92.7249V81.2062C42.8981 80.9511 42.9454 80.6977 43.0411 80.4611C43.1368 80.2245 43.279 80.0095 43.4595 79.8291C43.6399 79.6486 43.8549 79.5063 44.0915 79.4106C44.3281 79.3149 44.5816 79.2677 44.8368 79.272C45.3498 79.272 45.8417 79.4758 46.2045 79.8385C46.5672 80.2013 46.771 80.6932 46.771 81.2062V81.4094C47.3321 80.6889 48.0491 80.1048 48.8682 79.7011C49.6873 79.2974 50.5872 79.0846 51.5003 79.0785C52.2161 79.0491 52.93 79.1708 53.5957 79.4355C54.2614 79.7002 54.864 80.1021 55.3641 80.615C55.8643 81.1279 56.2508 81.7404 56.4987 82.4125C56.7465 83.0847 56.8501 83.8015 56.8027 84.5163" fill="white"/>
<path d="M72.0949 92.4115C72.0762 92.7592 71.9534 93.0934 71.7426 93.3706C71.5318 93.6478 71.2426 93.8553 70.9125 93.9662C69.7724 94.5441 68.508 94.8338 67.2301 94.81C63.6831 94.81 61.9615 93.0208 61.9615 90.013V82.6506H60.61C60.457 82.6587 60.3038 82.6361 60.1597 82.5842C60.0155 82.5322 59.8833 82.452 59.7706 82.3481C59.658 82.2442 59.5672 82.1189 59.5037 81.9794C59.4402 81.8399 59.4054 81.6891 59.4011 81.5359C59.4118 81.3211 59.472 81.1117 59.5773 80.9242C59.6826 80.7366 59.8301 80.5761 60.0079 80.4552L63.5549 77.416C63.6942 77.2409 63.868 77.0965 64.0656 76.9916C64.2632 76.8868 64.4804 76.8238 64.7035 76.8066C65.2789 76.8066 65.8181 77.2128 65.8181 78.1582V79.3671H70.2089C70.4293 79.3587 70.6491 79.3948 70.8552 79.4733C71.0614 79.5518 71.2496 79.6711 71.4085 79.824C71.5674 79.977 71.6939 80.1604 71.7802 80.3634C71.8666 80.5664 71.9111 80.7847 71.9111 81.0053C71.9111 81.2258 71.8666 81.4441 71.7802 81.6471C71.6939 81.85 71.5674 82.0335 71.4085 82.1865C71.2496 82.3394 71.0614 82.4587 70.8552 82.5372C70.6491 82.6157 70.4293 82.6518 70.2089 82.6433H65.8181V89.365C65.789 89.6308 65.8193 89.8997 65.9069 90.1524C65.9946 90.405 66.1373 90.635 66.3247 90.8257C66.5122 91.0163 66.7398 91.1629 66.9909 91.2549C67.2419 91.3468 67.5103 91.3818 67.7765 91.3573C68.3572 91.3543 68.9319 91.2393 69.4691 91.0188C69.8028 90.8774 70.1555 90.7861 70.516 90.748C70.7305 90.7471 70.9429 90.7899 71.1403 90.8737C71.3378 90.9575 71.5162 91.0806 71.6645 91.2355C71.8129 91.3905 71.9283 91.574 72.0035 91.7749C72.0787 91.9758 72.1123 92.19 72.1021 92.4043" fill="white"/>
<path d="M84.9319 80.9605C84.9384 81.2174 84.8931 81.4731 84.7985 81.712C84.7039 81.951 84.562 82.1684 84.3814 82.3513C84.2008 82.5341 83.9852 82.6787 83.7474 82.7762C83.5097 82.8737 83.2546 82.9223 82.9976 82.919C82.1331 82.8768 81.2735 83.0717 80.5116 83.4825C79.7497 83.8933 79.1143 84.5044 78.6744 85.2498V92.7137C78.6771 93.2329 78.4761 93.7325 78.1144 94.105C77.7527 94.4776 77.2593 94.6934 76.7402 94.706C76.4823 94.7025 76.2276 94.6483 75.9907 94.5462C75.7538 94.4441 75.5393 94.2963 75.3596 94.1112C75.1799 93.9261 75.0386 93.7075 74.9436 93.4676C74.8486 93.2278 74.8018 92.9716 74.8059 92.7137V81.1878C74.8017 80.9326 74.8488 80.6792 74.9445 80.4426C75.0402 80.206 75.1826 79.9911 75.363 79.8106C75.5435 79.6302 75.7583 79.4878 75.9949 79.3921C76.2315 79.2964 76.485 79.2493 76.7402 79.2535C77.2532 79.2535 77.7451 79.4573 78.1079 79.8201C78.4706 80.1828 78.6744 80.6748 78.6744 81.1878V82.0316C79.0557 81.1951 79.6618 80.481 80.4251 79.9687C81.1884 79.4564 82.079 79.1661 82.9976 79.1302C83.2469 79.1121 83.4972 79.146 83.7327 79.2297C83.9682 79.3134 84.1836 79.4452 84.3655 79.6166C84.5473 79.788 84.6917 79.9954 84.7892 80.2255C84.8867 80.4556 84.9352 80.7034 84.9319 80.9533" fill="white"/>
<path d="M97.1911 85.2502C97.1817 84.8098 97.0829 84.376 96.9008 83.975C96.7188 83.5739 96.457 83.2141 96.1317 82.9172C95.8063 82.6204 95.4242 82.3927 95.0082 82.2481C94.5922 82.1034 94.1511 82.0447 93.7118 82.0755C92.8055 82.0503 91.9218 82.3602 91.2299 82.9459C90.5379 83.5317 90.0864 84.3522 89.9618 85.2502H97.1911ZM100.637 85.758C100.674 86.2692 100.518 86.7757 100.199 87.1772C99.8265 87.6148 99.2535 87.7164 98.3759 87.7164H89.865C90.0343 88.8459 90.6299 89.8675 91.5293 90.5713C92.4287 91.2751 93.5636 91.6076 94.7007 91.5004C95.5187 91.484 96.3287 91.3354 97.0992 91.0603C97.4908 90.9307 97.8968 90.8495 98.3081 90.8185C98.5107 90.8184 98.7114 90.8589 98.8981 90.9374C99.0849 91.016 99.2541 91.131 99.3957 91.2758C99.5374 91.4207 99.6486 91.5923 99.7231 91.7808C99.7975 91.9692 99.8335 92.1706 99.829 92.3732C99.8216 92.7186 99.7115 93.054 99.5131 93.3368C99.3146 93.6197 99.0367 93.8372 98.7144 93.9617C97.3581 94.5803 95.8818 94.8916 94.3912 94.8732C93.3132 94.9441 92.2323 94.7903 91.2169 94.4214C90.2015 94.0525 89.2738 93.4766 88.4927 92.7303C87.7116 91.984 87.0942 91.0835 86.6794 90.0859C86.2647 89.0884 86.0618 88.0156 86.0835 86.9355C86.0372 85.904 86.2033 84.874 86.5717 83.9094C86.9401 82.9448 87.5028 82.0662 88.225 81.3282C88.9471 80.5901 89.8132 80.0085 90.7696 79.6192C91.7259 79.23 92.7521 79.0414 93.7844 79.0653C94.681 79.0262 95.576 79.1711 96.4144 79.4912C97.2529 79.8112 98.0169 80.2996 98.6593 80.9262C99.3018 81.5528 99.8091 82.3043 100.15 83.1345C100.491 83.9646 100.658 84.8558 100.641 85.7531" fill="white"/>
<path d="M114.28 85.2502C114.27 84.8098 114.171 84.376 113.989 83.975C113.807 83.5739 113.546 83.2141 113.22 82.9172C112.895 82.6204 112.513 82.3927 112.097 82.2481C111.681 82.1034 111.24 82.0447 110.8 82.0755C109.894 82.0503 109.01 82.3602 108.318 82.9459C107.626 83.5317 107.175 84.3522 107.05 85.2502H114.28ZM117.725 85.758C117.762 86.2692 117.606 86.7757 117.287 87.1772C116.915 87.6148 116.342 87.7164 115.464 87.7164H106.953C107.123 88.8459 107.718 89.8675 108.618 90.5713C109.517 91.2751 110.652 91.6076 111.789 91.5004C112.607 91.4839 113.417 91.3353 114.188 91.0603C114.579 90.9306 114.985 90.8494 115.397 90.8185C115.599 90.8184 115.8 90.8589 115.986 90.9374C116.173 91.016 116.342 91.131 116.484 91.2758C116.626 91.4207 116.737 91.5923 116.812 91.7808C116.886 91.9692 116.922 92.1706 116.918 92.3732C116.91 92.7186 116.8 93.054 116.602 93.3368C116.403 93.6197 116.125 93.8372 115.803 93.9617C114.446 94.5802 112.97 94.8915 111.48 94.8732C110.402 94.9441 109.321 94.7903 108.305 94.4214C107.29 94.0525 106.362 93.4766 105.581 92.7303C104.8 91.984 104.183 91.0835 103.768 90.0859C103.353 89.0884 103.15 88.0156 103.172 86.9355C103.126 85.904 103.292 84.874 103.66 83.9094C104.029 82.9448 104.591 82.0662 105.313 81.3282C106.036 80.5901 106.902 80.0085 107.858 79.6192C108.814 79.23 109.841 79.0414 110.873 79.0653C111.769 79.0262 112.665 79.1711 113.503 79.4912C114.341 79.8112 115.105 80.2996 115.748 80.9262C116.39 81.5528 116.897 82.3043 117.238 83.1345C117.579 83.9646 117.747 84.8558 117.73 85.7531" fill="white"/>
</svg>
