<svg width="120" height="120" viewBox="0 0 120 120" fill="none" xmlns="http://www.w3.org/2000/svg">
<path d="M8 74V114C8 115.061 8.42143 116.078 9.17157 116.828C9.92172 117.579 10.9391 118 12 118H108C109.061 118 110.078 117.579 110.828 116.828C111.579 116.078 112 115.061 112 114V74H8Z" fill="#943F7F"/>
<path d="M2 58V76C2 76.5304 2.21071 77.0391 2.58579 77.4142C2.96086 77.7893 3.46957 78 4 78H116C116.53 78 117.039 77.7893 117.414 77.4142C117.789 77.0391 118 76.5304 118 76V58H2Z" fill="#A85493"/>
<path d="M110 44C110.37 43.9984 110.733 44.1006 111.047 44.2951C111.362 44.4895 111.616 44.7684 111.78 45.1L117.78 57.1C117.933 57.4045 118.006 57.7431 117.992 58.0837C117.978 58.4244 117.877 58.7557 117.698 59.0463C117.52 59.3368 117.27 59.577 116.973 59.7439C116.676 59.9108 116.341 59.999 116 60H3.99981C3.65888 59.999 3.32387 59.9108 3.02661 59.7439C2.72934 59.577 2.47968 59.3368 2.30133 59.0463C2.12299 58.7557 2.02188 58.4244 2.00761 58.0837C1.99334 57.7431 2.06639 57.4045 2.21981 57.1L8.21981 45.1C8.3838 44.7684 8.63757 44.4895 8.95226 44.2951C9.26694 44.1006 9.62989 43.9984 9.99981 44H110Z" fill="#943F7F"/>
<path d="M32 52V4C32 3.46957 32.2107 2.96086 32.5858 2.58579C32.9609 2.21071 33.4696 2 34 2H86C86.5304 2 87.0392 2.21071 87.4142 2.58579C87.7893 2.96086 88 3.46957 88 4V52H32Z" fill="#E6EBEF"/>
<path d="M94 54H26C25.4696 54 24.9609 53.7893 24.5858 53.4142C24.2107 53.0391 24 52.5304 24 52C24 51.4696 24.2107 50.9609 24.5858 50.5858C24.9609 50.2107 25.4696 50 26 50H94C94.5304 50 95.0391 50.2107 95.4142 50.5858C95.7893 50.9609 96 51.4696 96 52C96 52.5304 95.7893 53.0391 95.4142 53.4142C95.0391 53.7893 94.5304 54 94 54Z" fill="#51033E"/>
<path d="M62.8282 28.0001L71.4142 19.4141C71.7785 19.0369 71.9801 18.5317 71.9755 18.0073C71.971 17.4829 71.7606 16.9813 71.3898 16.6104C71.019 16.2396 70.5174 16.0293 69.993 16.0247C69.4686 16.0202 68.9634 16.2218 68.5862 16.5861L60.0002 25.1721L51.4142 16.5861C51.037 16.2218 50.5318 16.0202 50.0074 16.0247C49.483 16.0293 48.9813 16.2396 48.6105 16.6104C48.2397 16.9813 48.0294 17.4829 48.0248 18.0073C48.0203 18.5317 48.2218 19.0369 48.5862 19.4141L57.1722 28.0001L48.5862 36.5861C48.3951 36.7706 48.2428 36.9913 48.138 37.2353C48.0331 37.4793 47.978 37.7417 47.9757 38.0073C47.9734 38.2728 48.024 38.5362 48.1245 38.782C48.2251 39.0278 48.3736 39.2511 48.5614 39.4389C48.7492 39.6267 48.9725 39.7752 49.2183 39.8757C49.464 39.9763 49.7274 40.0269 49.993 40.0246C50.2585 40.0223 50.521 39.9671 50.765 39.8623C51.009 39.7575 51.2297 39.6051 51.4142 39.4141L60.0002 30.8281L68.5862 39.4141C68.9634 39.7784 69.4686 39.98 69.993 39.9754C70.5174 39.9709 71.019 39.7605 71.3898 39.3897C71.7606 39.0189 71.971 38.5173 71.9755 37.9929C71.9801 37.4685 71.7785 36.9633 71.4142 36.5861L62.8282 28.0001Z" fill="#BF3643"/>
</svg>
