<svg width="21" height="21" viewBox="0 0 21 21" fill="none" xmlns="http://www.w3.org/2000/svg">
<path d="M13.4668 15.4701H15.1335V20.4701H0.966797V8.80348C0.966797 7.42015 2.0918 6.30348 3.4668 6.30348H6.82513C6.45846 6.78682 6.18346 7.35348 6.05846 7.97015H3.4668C3.00846 7.97015 2.63346 8.34515 2.63346 8.80348V18.8035H13.4668V15.4701ZM20.4751 5.95348L15.0168 0.486816L13.8418 1.66182L18.4751 6.29515H10.1335C8.75846 6.29515 7.63346 7.42015 7.63346 8.79515V15.4618H9.30013V8.80348C9.30013 8.34515 9.67513 7.97015 10.1335 7.97015H18.4668L13.7918 12.6452L14.9668 13.8202L20.4751 8.31182C21.1251 7.66182 21.1251 6.60348 20.4751 5.95348Z" fill="white"/>
</svg>
